<?xml version="1.0" encoding="UTF-8"?>
<svg width="40px" height="40px" viewBox="0 0 40 40" version="1.1" xmlns="http://www.w3.org/2000/svg" xmlns:xlink="http://www.w3.org/1999/xlink">
    <title>画板</title>
    <defs>
        <path d="M14.2119824,38.5266834 C10.7807533,38.5266834 8,35.7459449 8,32.3159591 L8,18.2236175 C8,14.7924067 10.7807533,12.0104433 14.2119824,12.0104433 L18.6905878,12.0104433 L19.0801382,8.32688351 C19.2393884,5.61964472 20.9568405,3.21987966 23.5036185,2.29133351 C25.8225463,1.44486201 26.8098975,2.56818236 26.8098975,4.05287621 C26.8098975,12.1464177 29.9091512,11.8119941 30.8132022,16.0504765 C31.3669029,18.6486908 31.7870784,21.7638529 31.7858561,25.2857133 C31.7834034,29.8279945 31.0814776,33.6940784 30.2962516,36.6426412 C30.0010263,37.7524866 28.9977501,38.5266834 27.8486987,38.5266834 L14.2119824,38.5266834 Z" id="path-1"></path>
    </defs>
    <g id="画板" stroke="none" stroke-width="1" fill="none" fill-rule="evenodd">
        <g id="Fill-13">
            <use fill="#21C68D" xlink:href="#path-1"></use>
            <use fill="#11142D" xlink:href="#path-1"></use>
        </g>
    </g>
</svg>