<?xml version="1.0" encoding="UTF-8"?>
<svg width="152px" height="37px" viewBox="0 0 152 37" version="1.1" xmlns="http://www.w3.org/2000/svg" xmlns:xlink="http://www.w3.org/1999/xlink">
    <title>logo备份 2</title>
    <g id="页面-1" stroke="none" stroke-width="1" fill="none" fill-rule="evenodd">
        <path d="M53.6878941,17.680504 C57.7230489,17.680504 60.5969023,19.9222447 61.5720035,23.8324285 L61.5720035,23.8324285 C61.7226787,24.446151 61.8035288,25.0757984 61.8108788,25.7054457 C61.8108788,27.0370152 61.7778037,27.9839363 61.7190037,28.4506594 C61.6859286,28.7079083 61.4629784,28.9039075 61.2008281,28.9039075 L61.2008281,28.9039075 L50.1304898,28.9039075 L50.1304898,29.2015813 C50.1304898,31.1505482 51.7156417,32.7344666 53.6621691,32.7344666 L53.6621691,32.7344666 L54.6666703,32.7344666 C55.8757467,32.7344666 56.9096479,32.1280941 57.5037736,31.0696985 C57.5748237,30.9410741 57.6924239,30.8504244 57.833299,30.8136746 C57.9704992,30.7756997 58.1162744,30.7952997 58.2387745,30.8700244 L58.2387745,30.8700244 L60.9203027,32.4686427 C61.171428,32.6168671 61.2547281,32.9341408 61.1114029,33.1889397 C59.8741515,35.3853557 57.4290485,36.75 54.7291453,36.75 L54.7291453,36.75 L53.6621691,36.75 C49.1994887,36.7353001 45.5673594,33.0921652 45.5673594,28.6270586 L45.5673594,28.6270586 L45.5673594,25.9369698 C45.5673594,23.701354 46.3329853,21.6409126 47.724587,20.1402938 C49.2141887,18.5294255 51.2758662,17.680504 53.6878941,17.680504 Z M70.462254,17.6815716 L70.817457,17.6914064 C75.5141126,17.8800557 77.2352397,20.9217181 77.2793397,23.7049065 C77.2817897,23.9070307 77.2058397,24.0956799 77.0637395,24.2390043 C76.9216393,24.3847787 76.7317641,24.4631784 76.5296388,24.4631784 L76.5296388,24.4631784 L73.9301857,24.4631784 C73.5161353,24.4631784 73.1731348,24.1263048 73.1657848,23.7122565 C73.1412848,22.8131102 72.8227844,21.8808891 70.6520818,21.7939144 C69.3572553,21.7400147 68.3527541,21.9617388 67.8946035,22.4015119 C67.6214282,22.6624358 67.5920282,22.9711346 67.5920282,23.0924091 L67.5920282,23.0924091 L67.5925945,23.1942032 C67.6022214,23.778497 67.7755062,24.4869297 70.8946321,25.1822504 C74.8085118,26.0544468 77.4140899,27.4252161 77.4128653,31.2815001 C77.4128653,32.6314446 76.8444642,33.9495391 75.854663,34.8989102 C74.6088366,36.0920552 72.7884844,36.6972027 70.4426066,36.6972027 C70.2613064,36.6972027 70.0665311,36.6923027 69.8448059,36.6849528 C64.9925751,36.4840536 63.2077479,33.4460662 63.1537224,30.6702277 C63.1501729,30.4681035 63.227348,30.2782293 63.3682231,30.1349049 C63.5103233,29.9903555 63.6989735,29.9107308 63.9010988,29.9107308 L63.9010988,29.9107308 L66.5164769,29.9107308 C66.9244024,29.9107308 67.2637278,30.2427045 67.2723028,30.6481778 L67.2723028,30.6481778 L67.2723028,30.6677777 C67.3237529,31.9111475 68.1702289,32.5052701 70.0163061,32.5812198 C72.0204085,32.6669694 72.7762344,32.1573715 73.0077596,31.9356474 C73.2625599,31.6894235 73.300535,31.4211496 73.300535,31.2815001 C73.300535,30.4950534 73.300535,29.9266558 69.9991561,29.1904338 C66.9636024,28.5154616 63.4796983,27.210842 63.4796983,23.0924091 C63.4796983,21.7253147 64.050549,20.3937452 65.0452501,19.4406992 C66.3621267,18.1777294 68.303754,17.5897319 70.817457,17.6914064 Z M85.9242976,13.7213204 C86.0418977,13.7213204 86.1411228,13.7629702 86.2231979,13.8438199 C86.304048,13.9258945 86.3456981,14.0251191 86.3456981,14.1427186 L86.3456981,14.1427186 L86.3456981,18.3162763 C86.3456981,18.4338759 86.4044981,18.4914506 86.5208733,18.4914506 L86.5208733,18.4914506 L89.8884023,18.4914506 C90.0047774,18.4914506 90.1040025,18.5331005 90.1860776,18.6151751 C90.2681527,18.6972498 90.3098028,18.7964744 90.3098028,18.9128489 L90.3098028,18.9128489 L90.3098028,22.0353609 C90.3098028,22.1517355 90.2681527,22.2509601 90.1860776,22.3330347 C90.1040025,22.4151094 90.0047774,22.4555342 89.8884023,22.4555342 L89.8884023,22.4555342 L86.5208733,22.4555342 C86.4044981,22.4555342 86.3456981,22.514334 86.3456981,22.6307085 L86.3456981,22.6307085 L86.3456981,30.0664277 C86.3456981,30.8381745 86.5037233,31.4114721 86.8197736,31.7863206 C87.134599,32.159944 87.6429746,32.3473682 88.3449005,32.3473682 L88.3449005,32.3473682 L89.5025268,32.3473682 C89.618902,32.3473682 89.7181271,32.3877931 89.8002022,32.4698677 C89.8822773,32.5519424 89.9239273,32.651167 89.9239273,32.7675415 L89.9239273,32.7675415 L89.9239273,36.0995277 C89.9239273,36.3567766 89.7830522,36.508676 89.5025268,36.5552258 C88.5200757,36.6017756 87.8193748,36.6262755 87.3979743,36.6262755 C85.456347,36.6262755 84.0071703,36.3041018 83.0492191,35.6622045 C82.090043,35.0178572 81.5988174,33.8087872 81.5755424,32.0313195 L81.5755424,32.0313195 L81.5755424,22.6307085 C81.5755424,22.514334 81.5167423,22.4555342 81.4003672,22.4555342 L81.4003672,22.4555342 L79.4011648,22.4555342 C79.2835646,22.4555342 79.1843395,22.4151094 79.1022644,22.3330347 C79.0201893,22.2509601 78.9797643,22.1517355 78.9797643,22.0353609 L78.9797643,22.0353609 L78.9797643,18.9128489 C78.9797643,18.7964744 79.0201893,18.6972498 79.1022644,18.6151751 C79.1843395,18.5331005 79.2835646,18.4914506 79.4011648,18.4914506 L79.4011648,18.4914506 L81.4003672,18.4914506 C81.5167423,18.4914506 81.5755424,18.4338759 81.5755424,18.3162763 L81.5755424,18.3162763 L81.5755424,14.1427186 C81.5755424,14.0251191 81.6159674,13.9258945 81.6980425,13.8438199 C81.7801176,13.7629702 81.8793427,13.7213204 81.9969429,13.7213204 L81.9969429,13.7213204 Z M44.0022975,11.7773759 C44.0022975,13.1591702 43.550272,14.4331649 42.7895461,15.4646107 C43.3665218,16.4838064 43.6666471,17.6818515 43.6666471,19.0256709 C43.6666471,22.5904061 40.4791933,23.833776 40.4791933,23.833776 C40.4791933,23.833776 44.0022975,24.9987462 44.0022975,29.2801034 C44.0022975,31.565944 43.2097216,33.2748119 41.6992948,34.5475816 C40.187643,35.8448512 37.8086901,36.5051235 35.2361871,36.5271734 L35.2361871,36.5271734 L26.4125015,36.5271734 C25.940876,36.5271734 25.5966506,36.0800503 25.7191507,35.6255772 C26.798377,31.6026938 27.3447276,27.460986 27.3459526,23.2874283 C27.3471776,19.9407421 26.9943772,16.583031 26.2949014,13.3073946 C26.2495763,13.0930205 26.1993513,12.8859963 26.1454512,12.6863222 C26.0229511,12.2293991 26.3647265,11.7786009 26.837577,11.7786009 L26.837577,11.7786009 L31.2720823,11.7786009 Z M135.527792,14.0407991 C137.223194,12.4176808 139.739347,11.6618589 143.002751,11.7917084 C149.062833,12.0379324 151.271511,15.9150413 151.329086,19.5153014 C151.333986,19.9060748 151.017935,20.2245734 150.62716,20.2245734 L150.62716,20.2245734 L147.162856,20.2245734 C146.76718,20.2245734 146.447455,19.9072998 146.440105,19.5153014 C146.40458,18.2119068 145.898654,16.7921377 142.805525,16.6671882 C140.974148,16.5912385 139.592347,16.9097372 138.914921,17.5602095 C138.467795,17.9865077 138.42002,18.4948806 138.42002,18.6933298 L138.42002,18.6933298 L138.420401,18.8132856 C138.428778,19.7018433 138.621453,20.7815201 143.052976,21.769292 C148.128157,22.8999624 151.509161,24.6651801 151.507936,29.6068096 C151.507936,31.3254775 150.782735,33.0049455 149.520983,34.2127905 C147.916232,35.7513841 145.560554,36.5268059 142.5152,36.5268059 C142.25795,36.5268059 141.997024,36.5206809 141.729974,36.509656 C135.460417,36.2499571 133.168439,32.3814231 133.099713,28.787288 C133.092489,28.3965146 133.407314,28.0780159 133.79809,28.0780159 L133.79809,28.0780159 L137.283219,28.0780159 C137.667869,28.0780159 137.98637,28.3842646 137.99372,28.7689131 L137.99372,28.7689131 L137.99372,28.787288 C138.092945,31.187053 140.277122,31.5668015 141.933324,31.6354012 C144.620978,31.7481007 145.721029,31.0915034 146.138754,30.6921551 C146.55893,30.2891318 146.62018,29.8407836 146.62018,29.6068096 C146.62018,29.5553065 146.62018,29.5044195 146.619799,29.4541075 L146.617135,29.3048559 C146.585157,28.2715999 146.217421,27.4739336 141.988449,26.5332973 C138.051295,25.6562009 133.532264,23.9730579 133.532264,18.6945548 C133.532264,16.953837 134.259915,15.257219 135.527792,14.0407991 Z M18.8098975,2.05287621 C18.8098975,6.88060271 19.9126175,8.70964418 20.994401,10.2992099 L21.2794946,10.7162794 C21.9085185,11.6390953 22.4959913,12.5632897 22.8132022,14.0504765 C23.3669029,16.6486908 23.7870784,19.7638529 23.7858561,23.2857133 C23.7834034,27.8279945 23.0814776,31.6940784 22.2962516,34.6426412 C22.0010263,35.7524866 20.9977501,36.5266834 19.8486987,36.5266834 L6.21198241,36.5266834 C2.78075332,36.5266834 0,33.7459449 0,30.3159591 L0,16.2236175 C0,12.7924067 2.78075332,10.0104433 6.21198241,10.0104433 L10.6905878,10.0104433 L11.0801382,6.32688351 C11.2393884,3.61964472 12.9568405,1.21987966 15.5036185,0.291333506 C17.8225463,-0.555137989 18.8098975,0.568182359 18.8098975,2.05287621 Z M101.081486,11.9334403 C103.631939,11.9579402 105.653191,12.6133125 107.152593,13.8958822 C108.649545,15.1564019 109.409046,16.8971197 109.432321,19.1131355 L109.432321,19.1131355 L109.432321,29.2695685 C109.409046,31.4904843 108.649545,33.2287521 107.152593,34.4904969 C105.653191,35.7755165 103.631939,36.4296638 101.081486,36.4517137 L101.081486,36.4517137 L92.8090508,36.4517137 C92.4158253,36.4517137 92.0985499,36.13444 92.0985499,35.7424417 L92.0985499,35.7424417 L92.0985499,12.6439373 C92.0985499,12.253164 92.4182753,11.9334403 92.8090508,11.9334403 L92.8090508,11.9334403 Z M123.842258,11.9393203 C124.138708,11.9393203 124.404533,12.1230695 124.508659,12.4011433 L124.508659,12.4011433 L133.187794,35.4849477 C133.361744,35.9492208 133.018744,36.4441188 132.522618,36.4441188 L132.522618,36.4441188 L128.683464,36.4441188 C128.385788,36.4441188 128.121188,36.2603695 128.017063,35.9822957 L128.017063,35.9822957 L126.925587,33.0815077 L119.559653,33.0815077 C119.063527,33.0815077 118.720527,32.5878347 118.893252,32.1247867 L118.893252,32.1247867 L120.234629,28.5367765 C120.338754,28.2587027 120.604579,28.0749534 120.901029,28.0749534 L120.901029,28.0749534 L125.043984,28.0749534 L121.377555,18.3239938 L114.771122,35.9847457 C114.666997,36.2615945 114.401172,36.4453438 114.104721,36.4453438 L114.104721,36.4453438 L110.268017,36.4453438 C109.771891,36.4453438 109.428891,35.9516708 109.601616,35.4873977 L109.601616,35.4873977 L118.239101,12.4011433 C118.342001,12.1230695 118.609052,11.9393203 118.905502,11.9393203 L118.905502,11.9393203 Z M36.050813,26.3156157 L32.4517587,26.3156157 C32.3415086,28.2253828 32.1283583,30.1265749 31.812308,32.0106171 L31.812308,32.0106171 L36.050813,32.0106171 C37.6224899,32.0106171 38.8989414,30.7329474 38.8989414,29.1625039 C38.8989414,27.5932854 37.6224899,26.3156157 36.050813,26.3156157 L36.050813,26.3156157 Z M101.054536,16.9412195 L97.1124809,16.9412195 L97.1124809,31.4463845 L101.054536,31.4463845 C102.364062,31.4304595 103.315888,31.1781106 103.880614,30.6930126 L103.880614,30.6930126 L103.898989,30.6783126 L103.914914,30.6636127 C104.098664,30.5104883 104.40124,30.2556894 104.41594,29.2413936 L104.41594,29.2413936 L104.414715,29.2413936 L104.414715,19.1474354 C104.39879,18.1319146 104.096214,17.8771157 103.914914,17.7239913 L103.914914,17.7239913 L103.896539,17.7080664 L103.880614,17.6933664 C103.315888,17.2107184 102.364062,16.9559195 101.054536,16.9412195 L101.054536,16.9412195 Z M53.84611,21.850506 L53.597244,21.8503867 C51.6531667,21.8871366 50.1304898,23.4061303 50.1304898,25.3109974 L50.1304898,25.3109974 L50.1304898,25.4861717 L57.1962983,25.4861717 L57.1962983,25.2264727 C57.1962983,24.7915995 57.1178982,24.3665263 56.963548,23.9671779 C56.7871478,23.5004549 56.5164225,23.0851816 56.161172,22.7299331 C55.5572463,22.1272356 54.6936203,21.8258868 53.597244,21.8503867 Z M36.0814381,16.6785806 L32.1246833,16.6785806 C32.3353836,18.3494737 32.4664588,20.0301668 32.5154588,21.7133098 L32.5154588,21.7133098 L36.0814381,21.7133098 C37.4350647,21.7133098 38.530216,20.6157143 38.530216,19.2645449 L38.530216,19.2645449 L38.530216,19.1261205 C38.530216,17.7749511 37.4350647,16.6785806 36.0814381,16.6785806 L36.0814381,16.6785806 Z" id="logo备份-2" fill="#11142D"></path>
    </g>
</svg>