<?xml version="1.0" encoding="UTF-8"?>
<svg width="36px" height="36px" viewBox="0 0 36 36" version="1.1" xmlns="http://www.w3.org/2000/svg" xmlns:xlink="http://www.w3.org/1999/xlink">
    <title>close</title>
    <g id="close" stroke="none" stroke-width="1" fill="none" fill-rule="evenodd">
        <g id="Button/关闭弹窗按钮" transform="translate(9.000000, 9.000000)" fill="#A0A1AB">
            <path d="M9.00464157,18 C13.9247035,18 18,13.9247035 18,8.99535843 C18,4.07529654 13.9154203,0 8.99535843,0 C4.07529654,0 0,4.07529654 0,8.99535843 C0,13.9247035 4.08457968,18 9.00464157,18 Z M12.1052089,12.8942754 C11.8916968,12.8942754 11.6967509,12.801444 11.5575039,12.662197 L8.99535843,10.0907684 L6.433213,12.662197 C6.29396596,12.8107272 6.09902011,12.8942754 5.88550799,12.8942754 C5.45848375,12.8942754 5.11500774,12.5415162 5.11500774,12.114492 C5.11500774,11.9009799 5.19855596,11.7153172 5.33780299,11.5760701 L7.90923156,9.00464157 L5.33780299,6.433213 C5.19855596,6.29396596 5.11500774,6.10830325 5.11500774,5.90407427 C5.11500774,5.46776689 5.45848375,5.13357401 5.88550799,5.13357401 C6.09902011,5.13357401 6.28468283,5.21712223 6.42392986,5.35636926 L8.99535843,7.92779783 L11.5853533,5.35636926 C11.7431666,5.18927282 11.910263,5.12429087 12.114492,5.12429087 C12.5507994,5.12429087 12.8942754,5.45848375 12.8942754,5.89479113 C12.8942754,6.09902011 12.8200103,6.27539969 12.662197,6.42392986 L10.0907684,9.00464157 L12.6529139,11.5575039 C12.801444,11.7153172 12.8849923,11.8916968 12.8849923,12.114492 C12.8849923,12.5415162 12.5415162,12.8942754 12.1052089,12.8942754 Z" id="close"></path>
        </g>
    </g>
</svg>