<?xml version="1.0" encoding="UTF-8"?>
<svg width="32px" height="32px" viewBox="0 0 32 32" version="1.1" xmlns="http://www.w3.org/2000/svg" xmlns:xlink="http://www.w3.org/1999/xlink">
    <!-- Generator: Sketch 64 (93537) - https://sketch.com -->
    <title>discord</title>
    <desc>Created with Sketch.</desc>
    <g id="discord" stroke="none" stroke-width="1" fill="none" fill-rule="evenodd">
        <g>
            <rect id="Rectangle-Copy-48" fill="#FCA1A1" opacity="0" x="0" y="0" width="32" height="32"></rect>
            <path d="M25.5522078,4.32432432 C27.1019221,4.32432432 28.3636364,5.58603861 28.3636364,7.14946718 L28.3636364,7.14946718 L28.3636364,31.7528958 L25.4150649,29.1471815 L23.7556364,27.6111815 L22.0002078,25.9791815 L22.7270649,28.5163243 L7.17506494,28.5163243 C5.62535065,28.5163243 4.36363636,27.25461 4.36363636,25.6911815 L4.36363636,25.6911815 L4.36363636,7.14946718 C4.36363636,5.58603861 5.62535065,4.32432432 7.17506494,4.32432432 L7.17506494,4.32432432 Z M14.2653506,10.7150675 C14.2653506,10.7150675 12.3864935,10.6740386 10.4116364,12.1551815 C10.4116364,12.1551815 8.43677922,15.73461 8.43677922,20.15061 C8.43677922,20.15061 9.58877922,22.1391815 12.6196364,22.2351815 C12.6196364,22.2351815 13.1270649,21.6180386 13.5384935,21.0968958 C11.7967792,20.5757529 11.1384935,19.47861 11.1384935,19.47861 C11.1384935,19.47861 11.2756364,19.57461 11.5224935,19.7117529 C11.5362078,19.7254672 11.5499221,19.7391815 11.5773506,19.7528958 C11.6184935,19.7803243 11.6596364,19.7940386 11.7007792,19.8214672 C12.0436364,20.0134672 12.3864935,20.1643243 12.7019221,20.2877529 C13.2642078,20.5071815 13.9362078,20.72661 14.7179221,20.8774672 C15.7464935,21.0694672 16.9533506,21.1380386 18.2699221,20.8911815 C18.9144935,20.7814672 19.5727792,20.5894672 20.2584935,20.3014672 C20.7384935,20.1231815 21.2733506,19.86261 21.8356364,19.4923243 C21.8356364,19.4923243 21.1499221,20.6168958 19.3533506,21.1243243 C19.7647792,21.6454672 20.2584935,22.2351815 20.2584935,22.2351815 C23.2893506,22.1391815 24.4550649,20.15061 24.4550649,20.15061 C24.4550649,15.73461 22.4802078,12.1551815 22.4802078,12.1551815 C20.6370078,10.7727815 18.8774345,10.7163622 18.6510167,10.7149836 L18.6264935,10.7150675 L18.4344935,10.93461 C20.7659221,11.6477529 21.8493506,12.6763243 21.8493506,12.6763243 C20.4230649,11.89461 19.0242078,11.51061 17.7213506,11.3597529 C16.7339221,11.2500386 15.7876364,11.2774672 14.9510649,11.3871815 C14.8687792,11.3871815 14.8002078,11.4008958 14.7179221,11.41461 C14.2379221,11.4557529 13.0722078,11.6340386 11.6047792,12.27861 C11.0973506,12.5117529 10.7956364,12.6763243 10.7956364,12.6763243 C10.7956364,12.6763243 11.9339221,11.5928958 14.4024935,10.8797529 L14.4024935,10.8797529 Z M13.8813506,15.83061 C14.6630649,15.83061 15.2939221,16.5163243 15.2802078,17.3528958 C15.2802078,18.1894672 14.6630649,18.8751815 13.8813506,18.8751815 C13.1133506,18.8751815 12.4824935,18.1894672 12.4824935,17.3528958 C12.4824935,16.5163243 13.0996364,15.83061 13.8813506,15.83061 Z M18.8870649,15.83061 C19.6687792,15.83061 20.2859221,16.5163243 20.2859221,17.3528958 C20.2859221,18.1894672 19.6687792,18.8751815 18.8870649,18.8751815 C18.1190649,18.8751815 17.4882078,18.1894672 17.4882078,17.3528958 C17.4882078,16.5163243 18.1053506,15.83061 18.8870649,15.83061 Z" id="Combined-Shape" fill="#7289DA" fill-rule="nonzero"></path>
        </g>
    </g>
</svg>