<?xml version="1.0" encoding="UTF-8"?>
<svg width="32px" height="32px" viewBox="0 0 32 32" version="1.1" xmlns="http://www.w3.org/2000/svg" xmlns:xlink="http://www.w3.org/1999/xlink">
    <title>github</title>
    <g id="github" stroke="none" stroke-width="1" fill="none" fill-rule="evenodd">
        <g id="reddit">
            <rect id="Rectangle-Copy-48" fill="#FCA1A1" fill-rule="nonzero" opacity="0" x="0" y="0" width="32" height="32"></rect>
            <path d="M16,1.45454545 C13.9924145,1.45454545 12.1079636,1.83333091 10.3465891,2.59090909 C8.56628,3.34848727 7.018,4.38541091 5.70170545,5.70170545 C4.38541018,7.018 3.34848873,8.56628 2.59090909,10.3465927 C1.83332945,12.1079636 1.45454545,13.9924145 1.45454545,16 C1.45454545,17.6098582 1.70075513,19.1439309 2.19318182,20.6022727 C2.68560836,22.0606145 3.37215455,23.3910909 4.25284073,24.5937491 C5.13352727,25.7964073 6.18938909,26.8427985 7.42045455,27.7329545 C8.63258182,28.6231105 9.95832727,29.3143916 11.3977273,29.8068182 C11.7575782,29.8636367 12.0132582,29.806819 12.1647709,29.6363636 C12.3162873,29.4659083 12.3920436,29.2859858 12.3920436,29.0965909 C12.3920436,28.9261356 12.3920436,28.5852298 12.3920436,28.0738636 C12.3920436,27.5624975 12.3825745,27.0037909 12.3636364,26.3977273 C10.3560509,26.8333356 9.03977455,26.658148 8.41477091,25.87216 C7.78977091,25.0861709 7.47727273,24.6931818 7.47727273,24.6931818 C7.13636364,23.8409055 6.78125091,23.2727273 6.41193091,22.9886364 C6.04261091,22.7045455 5.85795636,22.5624982 5.85795636,22.5624982 C5.19507273,22.1079527 5.04829345,21.8475382 5.41761455,21.7812509 C5.78693455,21.71496 5.97159273,21.6818182 5.97159273,21.6818182 C6.69129091,21.7196982 7.24052727,21.9753782 7.61931636,22.4488618 C7.99810909,22.9223491 8.18749818,23.1590909 8.18749818,23.1590909 C8.83144364,24.27652 9.59374545,24.8068182 10.4744327,24.75 C11.3551164,24.6931818 12.0037855,24.5700764 12.4204545,24.38068 C12.4962109,23.9071964 12.6193164,23.5094727 12.7897745,23.1875018 C12.9602291,22.8655273 13.1496218,22.6098509 13.3579564,22.4204545 C12.5435564,22.3446982 11.73864,22.1837127 10.9431818,21.9375018 C10.1477236,21.6912873 9.43750182,21.3077673 8.81250182,20.7869309 C8.18749818,20.2660945 7.68560727,19.5606109 7.30681818,18.6704545 C6.90908727,17.7802982 6.71022545,16.6344764 6.71022545,15.2329564 C6.71022545,14.4374945 6.8428,13.7178073 7.10795636,13.0738655 C7.37310909,12.42992 7.74242182,11.8522764 8.21590909,11.3409091 C8.14015273,11.1515127 8.04545455,10.7111782 7.93181818,10.0198873 C7.81818182,9.32859636 7.96022545,8.48106545 8.35795636,7.47727273 C8.35795636,7.47727273 8.67518545,7.49147636 9.30965818,7.51988727 C9.94413091,7.54829455 10.9621127,8.03598182 12.3636364,8.98295636 C12.9318218,8.81249818 13.5236727,8.68939273 14.1392036,8.61363636 C14.7547382,8.53788 15.3749964,8.5 16,8.5 C16.6250036,8.5 17.2452618,8.53788 17.8607964,8.61363636 C18.4763273,8.68939273 19.0681782,8.81249818 19.6363636,8.98295636 C21.0189455,8.03598182 22.0321927,7.54829455 22.6761382,7.51988727 C23.32008,7.49147636 23.6420436,7.47727273 23.6420436,7.47727273 C24.0397745,8.48106545 24.1818182,9.32859636 24.0681818,10.0198873 C23.9545455,10.7111782 23.8598473,11.1515127 23.7840909,11.3409091 C24.2575782,11.8522764 24.6268909,12.42992 24.8920436,13.0738655 C25.1572,13.7178073 25.2897745,14.4374945 25.2897745,15.2329564 C25.2897745,16.6344764 25.0909127,17.7802982 24.6931818,18.6704545 C24.3143927,19.5606109 23.8077673,20.2660945 23.1732945,20.7869309 C22.5388218,21.3077673 21.8238691,21.6912873 21.0284073,21.9375018 C20.2518909,22.1647745 19.4564436,22.3257564 18.6420436,22.4204545 C18.9072,22.6477273 19.1392036,22.9838982 19.3380691,23.4289782 C19.5369345,23.8740545 19.6363636,24.4374982 19.6363636,25.11932 C19.6363636,26.0852327 19.6316291,26.9327615 19.62216,27.6619316 C19.6126909,28.3911022 19.6079564,28.8693171 19.6079564,29.0965909 C19.6079564,29.2859858 19.6837127,29.4706431 19.8352291,29.6505682 C19.9867418,29.8304933 20.2424218,29.8825761 20.6022727,29.8068182 C22.0416727,29.3143916 23.3768873,28.6231105 24.6079564,27.7329545 C25.82008,26.8427985 26.8664727,25.7964073 27.74716,24.5937491 C28.6278436,23.3910909 29.3143927,22.0606145 29.8068182,20.6022727 C30.2992436,19.1439309 30.5454545,17.6098582 30.5454545,16 C30.5454545,13.9924145 30.1666691,12.1079636 29.4090909,10.3465927 C28.6515127,8.56628 27.6145891,7.018 26.2982945,5.70170545 C24.982,4.38541091 23.43372,3.34848727 21.6534109,2.59090909 C19.8920364,1.83333091 18.0075855,1.45454545 16,1.45454545 Z" id="Fill-1" fill="#000000"></path>
        </g>
    </g>
</svg>