<?xml version="1.0" encoding="UTF-8"?>
<svg width="62px" height="62px" viewBox="0 0 62 62" version="1.1" xmlns="http://www.w3.org/2000/svg" xmlns:xlink="http://www.w3.org/1999/xlink">
    <title>ic-bitcc</title>
    <defs>
        <radialGradient cx="50%" cy="0%" fx="50%" fy="0%" r="100%" id="radialGradient-1">
            <stop stop-color="#FFFFFF" offset="0%"></stop>
            <stop stop-color="#000000" offset="100%"></stop>
        </radialGradient>
    </defs>
    <g id="ic-bitcc" stroke="none" stroke-width="1" fill="none" fill-rule="evenodd">
        <g id="internationalization" transform="translate(6.000000, 6.000000)" fill-rule="nonzero">
            <circle id="Oval" fill="#99B5FF" cx="25.0000019" cy="25.0000019" r="25.0000019"></circle>
            <path d="M15.5552598,48.1481932 C18.4699151,49.3387106 21.6569844,49.9999175 25.0000881,49.9999175 C38.8078477,49.9999175 50.00009,38.8068133 50.00009,24.9999156 C50.00009,21.0266395 49.0690554,17.2723289 47.4190553,13.9361217 C47.165607,15.837846 47.0509518,18.2093979 47.9207795,18.8309497 C49.4302624,19.909398 47.8664691,21.4723292 46.7880207,22.4973293 C45.7095724,23.5214672 43.6612964,24.4378466 43.7147446,26.4326744 C43.769055,28.4275021 43.5535378,31.285261 41.3423307,30.9076747 C39.1328477,30.5300885 37.2043993,31.8050886 36.0061234,32.9240542 C32.729399,35.081813 30.4914678,32.7637094 28.333709,33.1637094 C26.1759502,33.5628473 26.335433,30.8456058 27.8543986,30.1266401 C33.6078473,27.9688814 35.6862958,24.2128466 35.3656061,23.893019 C24.737157,21.9749154 23.8595707,9.79129381 23.8595707,9.79129381 C18.7449152,10.6438801 17.0414668,10.1111214 15.6552598,8.83267308 C14.8362942,8.07663854 14.6880183,4.78267277 14.7043976,2.21974154 C6.391466,5.98353493 0.500948314,14.1559493 0.0311206919,23.7576742 C0.881982825,24.5981915 1.92767256,25.1835364 2.80353469,24.9404329 C4.55094862,24.4550881 5.52163835,25.0378467 5.23025902,26.5912951 C4.93974175,28.1438814 6.10439701,31.2507782 6.7837074,31.2507782 C7.4630178,31.2507782 8.91991446,28.8240539 10.0845697,28.5326745 C11.2500871,28.2412952 11.8328457,29.8921574 14.4543976,31.6395713 C17.0750875,33.3869853 13.1914665,36.0076751 14.6475011,36.9783649 C17.3664668,39.1145719 17.6569841,40.7654341 17.6569841,40.7654341 C18.9190531,41.8326755 19.7931911,44.1628481 18.3371566,45.9102621 C18.0087083,46.3050897 16.9664668,47.1231931 15.5552598,48.1481932" id="Fill-4" fill="#8BABFF"></path>
            <circle id="Oval-Copy-16" fill="url(#radialGradient-1)" style="mix-blend-mode: soft-light;" cx="25.0000019" cy="25.0000019" r="25.0000019"></circle>
        </g>
    </g>
</svg>