<?xml version="1.0" encoding="UTF-8"?>
<svg width="50px" height="50px" viewBox="0 0 50 50" version="1.1" xmlns="http://www.w3.org/2000/svg" xmlns:xlink="http://www.w3.org/1999/xlink">
    <title>ic-bit</title>
    <g id="ic-bit" stroke="none" stroke-width="1" fill="none" fill-rule="evenodd">
        <g id="编组-41备份-2" transform="translate(0.000000, 3.000000)">
            <rect id="矩形备份-2" fill="#FFC3B1" fill-rule="nonzero" x="4" y="17" width="38" height="26" rx="4"></rect>
            <path d="M23,-1.73372428e-12 C27.9705627,-1.73372428e-12 32,4.02619083 32,8.9927489 C32,8.99542629 31.9999988,8.99810341 31.9999965,9.00078025 L42,9 C44.209139,9 46,10.790861 46,13 L46,35 C46,37.209139 44.209139,39 42,39 L4,39 C1.790861,39 2.705415e-16,37.209139 0,35 L0,13 C-2.705415e-16,10.790861 1.790861,9 4,9 L14,9 C14,4.11487936 17.8868137,0.144092391 22.7346377,0.00383401418 Z" id="形状结合" fill="#FF8D82"></path>
            <g id="形状结合" transform="translate(12.000000, 0.000000)" fill="#FFFFFF">
                <path d="M6.04739677,22.5546875 L6.04739677,26.90625 L6.09263914,26.90625 C6.53752244,25.890625 7.43482944,25.28125 8.58850987,25.28125 C10.6168761,25.28125 11.8761221,26.90625 11.8761221,29.6328125 L11.8761221,29.6328125 C11.8761221,32.359375 10.6168761,34 8.58096948,34 C7.41974865,34 6.52998205,33.390625 6.09263914,32.3984375 L6.09263914,32.3984375 L6.04739677,32.3984375 L6.04739677,33.828125 L3.84560144,33.828125 L3.84560144,22.5546875 L6.04739677,22.5546875 Z M19.5220826,23.40625 L19.5220826,25.453125 L21,25.453125 L21,27.171875 L19.5220826,27.171875 L19.5220826,31.234375 C19.5220826,32.015625 19.8614004,32.28125 20.5249551,32.28125 C20.7210054,32.28125 20.8642729,32.2578125 21,32.2421875 L21,32.2421875 L21,33.9140625 C20.751167,33.953125 20.3967684,34 19.9368043,34 C18.1421903,34 17.2976661,33.28125 17.2976661,31.484375 L17.2976661,31.484375 L17.2976661,27.171875 L16.1741472,27.171875 L16.1741472,25.453125 L17.2976661,25.453125 L17.2976661,23.40625 L19.5220826,23.40625 Z M1.22154399,31.4296875 C1.90017953,31.4296875 2.44308797,31.984375 2.44308797,32.6953125 C2.44308797,33.3984375 1.90017953,33.9609375 1.22154399,33.9609375 C0.535368043,33.9609375 0,33.3984375 0,32.6953125 C0,31.984375 0.535368043,31.4296875 1.22154399,31.4296875 Z M15.254219,25.453125 L15.254219,33.828125 L13.0524237,33.828125 L13.0524237,25.453125 L15.254219,25.453125 Z M7.84955117,27.171875 C6.78635548,27.171875 6.04739677,28.125 6.04739677,29.6328125 L6.04739677,29.6328125 C6.04739677,31.15625 6.77881508,32.109375 7.84955117,32.109375 C8.94290844,32.109375 9.63662478,31.1640625 9.63662478,29.640625 L9.63662478,29.640625 C9.63662478,28.1015625 8.94290844,27.171875 7.84955117,27.171875 Z M14.1533214,22 C14.8168761,22 15.329623,22.5390625 15.329623,23.1875 C15.329623,23.8359375 14.8168761,24.375 14.1533214,24.375 C13.4897666,24.375 12.9770197,23.8359375 12.9770197,23.1875 C12.9770197,22.5390625 13.4897666,22 14.1533214,22 Z M15.6890116,13.7945432 L15.7079522,13.8054152 C16.3753069,14.1947945 16.9507793,14.7234966 17.3948764,15.3552815 C15.6297718,17.1181587 13.3121652,18 10.9941556,18 C8.675743,18 6.35773341,17.1181587 4.59343473,15.3552815 L4.5946437,15.3532682 C5.03793483,14.7230939 5.61179534,14.1951971 6.277941,13.8066232 L6.2980906,13.7945432 C7.60297848,15.0609317 9.29836554,15.693522 10.9933496,15.693522 C12.6887367,15.693522 14.3841237,15.0609317 15.6890116,13.7945432 Z M16.0377205,3.91924971 C16.0377205,4.74471757 15.6407735,5.4771693 15.0270168,5.9370153 C15.6613261,6.77979786 16.0377205,7.82633004 16.0377205,8.95943568 C16.0377205,11.7382424 13.7749208,13.999219 10.9938735,13.999219 C8.21282617,13.999219 5.94962348,11.7382424 5.94962348,8.95943568 C5.94962348,6.25375548 8.09527755,4.038628 10.7754248,3.92391608 L10.9938735,3.91924971 L16.0377205,3.91924971 Z M10.9938735,6.22653305 C9.48547469,6.22653305 8.25836426,7.45265483 8.25836426,8.95943568 C8.25836426,10.4662165 9.48547469,11.6923383 10.9938735,11.6923383 C12.5018693,11.6923383 13.7289797,10.4662165 13.7289797,8.95943568 C13.7289797,7.45265483 12.5018693,6.22653305 10.9938735,6.22653305 Z"></path>
            </g>
        </g>
    </g>
</svg>