<?xml version="1.0" encoding="UTF-8"?>
<svg width="50px" height="50px" viewBox="0 0 50 50" version="1.1" xmlns="http://www.w3.org/2000/svg" xmlns:xlink="http://www.w3.org/1999/xlink">
    <title>ic-correct</title>
    <g id="ic-correct" stroke="none" stroke-width="1" fill="none" fill-rule="evenodd">
        <g id="编组-39" transform="translate(0.000000, 3.000000)">
            <path d="M21.9784314,0 C34.0137255,0 44,9.96470588 44,22 C42.4621578,21.3542557 40.7735982,21 39.0022978,21 C31.822596,21 26.0022978,26.8202983 26.0022978,34 C26.0022978,37.3503662 27.2697074,40.4047131 29.351233,42.7097469 C27.047524,43.5442815 24.5710071,44 22,44 C9.98627451,44 0,34.0137255 0,22 C0,9.96470588 9.96470588,0 21.9784314,0 Z" id="形状结合" fill="#E5EBFF" fill-rule="nonzero"></path>
            <path d="M22.4913133,29.6862881 C23.9167426,29.6862881 25.3012718,29.8086887 26.6153051,30.0462598 C26.2168847,31.2929375 26.0022978,32.621409 26.0022978,34 C26.0022978,36.2888889 26.5938347,38.439617 27.6323723,40.3076479 C25.9629043,40.7622108 24.2258144,41 22.4913133,41 C17.4603938,41 12.3635671,38.9819945 9.00229779,35.482687 C11.3749585,31.8331025 16.5376924,29.6862881 22.4913133,29.6862881 Z M22.4913133,10 C26.7093767,10 30.0267079,13.6066482 30.0267079,17.9432133 C30.0267079,22.5588643 26.7313458,26.0796399 22.4913133,26.0367036 C18.2732498,25.9937673 14.9558115,22.5588643 14.9558115,17.9432133 C14.9339495,13.6066482 18.2952189,10 22.4913133,10 Z" id="形状结合" fill="#5D7FFF" fill-rule="nonzero"></path>
            <g id="编组-38" transform="translate(29.000000, 24.000000)">
                <circle id="椭圆形" fill="#5D7FFF" cx="10" cy="10" r="10"></circle>
                <path d="M8.99666306,15 C8.62379212,15 8.17242203,14.8386552 7.89767503,14.5159657 L4.02436738,9.70137936 C3.82811951,9.49969842 4.8588106,9.08180011 5.62417727,9.08180011 C5.92509065,9.08180011 7.01042439,9.91029129 8.88017847,11.5672736 L13.1782005,6.15092914 C13.4333227,5.78790344 16,4.44728285 16,5.25400662 C16,5.41535137 14.0515085,8.48250299 10.1545254,14.4554615 C9.91902801,14.778151 9.48728271,15 8.99666306,15 Z" id="路径" fill="#FFFFFF" fill-rule="nonzero"></path>
            </g>
        </g>
    </g>
</svg>