<?xml version="1.0" encoding="UTF-8"?>
<svg width="24px" height="24px" viewBox="0 0 24 24" version="1.1" xmlns="http://www.w3.org/2000/svg" xmlns:xlink="http://www.w3.org/1999/xlink">
    <title>ic-cc</title>
    <g id="页面-1" stroke="none" stroke-width="1" fill="none" fill-rule="evenodd">
        <g id="体验测试版本" transform="translate(-539.000000, -507.000000)" fill="#667FFF" fill-rule="nonzero">
            <g id="弹窗/说明类/带链接" transform="translate(490.000000, 139.000000)">
                <g id="编组-2" transform="translate(49.000000, 368.000000)">
                    <path d="M12.5117188,23.0820312 C18.5703125,23.0820312 23.5742188,18.0546875 23.5742188,11.9960938 C23.5742188,5.9375 18.5585938,0.921875 12.5,0.921875 C6.44140625,0.921875 1.4140625,5.9375 1.4140625,11.9960938 C1.4140625,18.0546875 6.453125,23.0820312 12.5117188,23.0820312 Z M13.1445312,6.58203125 L13.1445312,3.1015625 C14.1289062,3.4765625 15.03125,4.671875 15.6757812,6.32421875 C14.9023438,6.46484375 14.0585938,6.55859375 13.1445312,6.58203125 Z M11.84375,6.58203125 C10.9414062,6.55859375 10.0859375,6.46484375 9.3125,6.32421875 C9.95703125,4.671875 10.859375,3.4765625 11.84375,3.1015625 L11.84375,6.58203125 Z M16.9882812,6.0078125 C16.5898438,5 16.0976562,4.1328125 15.5351562,3.453125 C16.6953125,3.86328125 17.75,4.5078125 18.6289062,5.31640625 C18.1484375,5.5859375 17.5976562,5.8203125 16.9882812,6.0078125 Z M8.01171875,6.0078125 C7.40234375,5.8203125 6.8515625,5.5859375 6.359375,5.31640625 C7.25,4.5078125 8.29296875,3.86328125 9.453125,3.453125 C8.890625,4.1328125 8.41015625,5 8.01171875,6.0078125 Z M21.5351562,11.3398438 L18.0195312,11.3398438 C17.9609375,9.83984375 17.7382812,8.4453125 17.3867188,7.21484375 C18.2070312,6.95703125 18.921875,6.640625 19.53125,6.27734375 C20.6679688,7.671875 21.3945312,9.4296875 21.5351562,11.3398438 Z M6.98046875,11.3398438 L3.46484375,11.3398438 C3.60546875,9.4296875 4.33203125,7.671875 5.45703125,6.27734375 C6.06640625,6.640625 6.79296875,6.95703125 7.6015625,7.21484375 C7.25,8.4453125 7.02734375,9.83984375 6.98046875,11.3398438 Z M11.84375,11.3398438 L8.31640625,11.3398438 C8.36328125,9.9921875 8.57421875,8.69140625 8.90234375,7.54296875 C9.81640625,7.73046875 10.8125,7.84765625 11.84375,7.8828125 L11.84375,11.3398438 Z M16.6835938,11.3398438 L13.1445312,11.3398438 L13.1445312,7.8828125 C14.1875,7.84765625 15.171875,7.73046875 16.0859375,7.54296875 C16.4140625,8.69140625 16.625,9.9921875 16.6835938,11.3398438 Z M5.4921875,17.75 C4.33203125,16.34375 3.60546875,14.5859375 3.46484375,12.640625 L6.98046875,12.640625 C7.02734375,14.1640625 7.25,15.5820312 7.6015625,16.8359375 C6.8046875,17.0820312 6.08984375,17.3984375 5.4921875,17.75 Z M8.90234375,16.5078125 C8.57421875,15.3359375 8.36328125,14.0234375 8.31640625,12.640625 L11.84375,12.640625 L11.84375,16.1679688 C10.8125,16.203125 9.81640625,16.3203125 8.90234375,16.5078125 Z M16.0859375,16.5078125 C15.171875,16.3203125 14.1875,16.203125 13.1445312,16.1679688 L13.1445312,12.640625 L16.6835938,12.640625 C16.6367188,14.0234375 16.4257812,15.3359375 16.0859375,16.5078125 Z M19.5195312,17.7617188 C18.9101562,17.3984375 18.1953125,17.0820312 17.3867188,16.8359375 C17.75,15.5820312 17.9726562,14.1640625 18.0195312,12.640625 L21.5351562,12.640625 C21.40625,14.5859375 20.6679688,16.3554688 19.5195312,17.7617188 Z M11.84375,20.9375 C10.859375,20.5625 9.95703125,19.3671875 9.3125,17.7265625 C10.0859375,17.5859375 10.9414062,17.4921875 11.84375,17.46875 L11.84375,20.9375 Z M13.1445312,20.9375 L13.1445312,17.46875 C14.0585938,17.4921875 14.9023438,17.5859375 15.6757812,17.7265625 C15.03125,19.3671875 14.1289062,20.5625 13.1445312,20.9375 Z M9.40625,20.5273438 C8.28125,20.1171875 7.26171875,19.4960938 6.39453125,18.7109375 C6.875,18.4414062 7.4140625,18.21875 8.01171875,18.0429688 C8.3984375,19.015625 8.8671875,19.859375 9.40625,20.5273438 Z M15.5820312,20.5390625 C16.1210938,19.859375 16.6015625,19.015625 16.9882812,18.0429688 C17.5859375,18.2304688 18.1367188,18.453125 18.6171875,18.7109375 C17.7382812,19.5078125 16.71875,20.1289062 15.5820312,20.5390625 Z" id="ic-cc"></path>
                </g>
            </g>
        </g>
    </g>
</svg>