<?xml version="1.0" encoding="UTF-8"?>
<svg width="54px" height="35px" viewBox="0 0 54 35" version="1.1" xmlns="http://www.w3.org/2000/svg" xmlns:xlink="http://www.w3.org/1999/xlink">
    <title>ic-decorate</title>
    <g id="页面-1" stroke="none" stroke-width="1" fill="none" fill-rule="evenodd">
        <g id="Market备份-6" transform="translate(-837.000000, -6215.000000)" fill="#F5EFE8" fill-rule="nonzero">
            <g id="编组-3备份-5" transform="translate(0.000000, 5600.000000)">
                <g id="编组-23" transform="translate(836.000000, 615.000000)">
                    <path d="M51.88,34.875 L51.88,16.74 L43.355,16.74 C44.8016667,13.02 47.7466667,9.92 52.19,7.44 C52.81,7.13 53.585,6.71666667 54.515,6.2 L54.515,6.2 L49.4,0 C39.5833333,6.09666667 34.675,13.5883333 34.675,22.475 L34.675,22.475 L34.675,34.875 L51.88,34.875 Z M19.02,34.875 L19.02,16.74 L10.495,16.74 C11.9416667,13.02 14.8866667,9.92 19.33,7.44 C19.95,7.13 20.725,6.71666667 21.655,6.2 L21.655,6.2 L16.54,0 C6.72333333,6.09666667 1.815,13.5883333 1.815,22.475 L1.815,22.475 L1.815,34.875 L19.02,34.875 Z" id="ic-decorate"></path>
                </g>
            </g>
        </g>
    </g>
</svg>