<?xml version="1.0" encoding="UTF-8"?>
<svg width="62px" height="62px" viewBox="0 0 62 62" version="1.1" xmlns="http://www.w3.org/2000/svg" xmlns:xlink="http://www.w3.org/1999/xlink">
    <title>ic-decentralized</title>
    <defs>
        <linearGradient x1="50%" y1="0%" x2="50%" y2="100%" id="linearGradient-1">
            <stop stop-color="#79A2FF" offset="0%"></stop>
            <stop stop-color="#467FFF" offset="100%"></stop>
        </linearGradient>
        <path d="M9.02111111,3.97222222 L42.9788889,3.97222222 C44.1718239,3.97222222 45.1388889,4.93928716 45.1388889,6.13222222 L45.1388889,49.1177778 C45.1388889,50.3107128 44.1718239,51.2777778 42.9788889,51.2777778 L9.02111111,51.2777778 C7.82817605,51.2777778 6.86111111,50.3107128 6.86111111,49.1177778 L6.86111111,6.13222222 C6.86111111,4.93928716 7.82817605,3.97222222 9.02111111,3.97222222 Z" id="path-2"></path>
        <filter x="-1.3%" y="-1.1%" width="102.6%" height="104.2%" filterUnits="objectBoundingBox" id="filter-3">
            <feOffset dx="0" dy="1" in="SourceAlpha" result="shadowOffsetOuter1"></feOffset>
            <feColorMatrix values="0 0 0 0 0   0 0 0 0 0.279673513   0 0 0 0 0.914317255  0 0 0 1 0" type="matrix" in="shadowOffsetOuter1"></feColorMatrix>
        </filter>
        <linearGradient x1="51.370804%" y1="62.463361%" x2="59.9441956%" y2="73.0780903%" id="linearGradient-4">
            <stop stop-color="#FFF0DF" offset="0%"></stop>
            <stop stop-color="#D3EEFF" offset="100%"></stop>
        </linearGradient>
        <path d="M0,41.8888889 C5.4349847,42.2254715 9.62827687,41.1723529 12.5798765,38.7295331 C15.7561171,36.1007946 26.5506664,26.211089 30.3395862,21.7747873 C32.1260289,19.6831097 33.3110603,16.5108386 33.2170004,11.7039815 C33.2170004,8.43450695 33.2170004,4.53317979 33.2170004,0 L0,0 L0,41.8888889 Z" id="path-5"></path>
        <filter x="-1.5%" y="-1.2%" width="106.0%" height="104.8%" filterUnits="objectBoundingBox" id="filter-7">
            <feOffset dx="1" dy="1" in="SourceAlpha" result="shadowOffsetOuter1"></feOffset>
            <feColorMatrix values="0 0 0 0 0.123664745   0 0 0 0 0.0795615466   0 0 0 0 0.0464841474  0 0 0 0.345470935 0" type="matrix" in="shadowOffsetOuter1"></feColorMatrix>
        </filter>
        <linearGradient x1="50.000398%" y1="-0.000139315266%" x2="50.000398%" y2="99.999865%" id="linearGradient-8">
            <stop stop-color="#FFD300" offset="0%"></stop>
            <stop stop-color="#FFA800" offset="100%"></stop>
        </linearGradient>
    </defs>
    <g id="ic-decentralized" stroke="none" stroke-width="1" fill="none" fill-rule="evenodd">
        <g id="ic_no_record" transform="translate(5.000000, 4.000000)">
            <rect id="Rectangle" fill-opacity="0" fill="#FFFFFF" x="0" y="0" width="52" height="52" rx="0.36"></rect>
            <g id="Rectangle" opacity="0.900000036" fill-rule="nonzero">
                <use fill="black" fill-opacity="1" filter="url(#filter-3)" xlink:href="#path-2"></use>
                <use fill="url(#linearGradient-1)" xlink:href="#path-2"></use>
            </g>
            <g id="Group" transform="translate(9.388889, 6.500000)">
                <mask id="mask-6" fill="white">
                    <use xlink:href="#path-5"></use>
                </mask>
                <g id="Path-3">
                    <use fill="black" fill-opacity="1" filter="url(#filter-7)" xlink:href="#path-5"></use>
                    <use fill="url(#linearGradient-4)" fill-rule="evenodd" xlink:href="#path-5"></use>
                </g>
                <path d="M0,42.25 C11.548191,42.9191658 17.3222865,37.551706 17.3222865,26.1476207 C21.3454991,26.1476207 33.5105548,27.0669568 33.2170004,12.0650926 C33.2170004,8.79561806 33.2170004,4.77392053 33.2170004,0 L0,0 L0,42.25 Z" id="Path-3-Copy" fill="#FFFFFF" fill-rule="nonzero" mask="url(#mask-6)"></path>
                <path d="M16.6111111,9.43588568 C23.2385281,9.43588568 28.6111111,14.8084687 28.6111111,21.4358857 C28.6111111,22.2814098 28.5236638,23.1065095 28.3573199,23.902634 C25.3758848,25.9137096 21.652851,26.1483594 19.0867731,26.1582356 L18.7529051,26.1583602 C18.6501974,26.1580686 18.5496531,26.157505 18.4514106,26.1567823 L9.69945784,17.4047767 C9.00759471,18.5884733 8.61111111,19.9658776 8.61111111,21.4358857 C8.61111111,25.8541637 12.1928331,29.4358857 16.6111111,29.4358857 C16.7912226,29.4358857 16.969944,29.4299336 17.1470892,29.4182154 C16.9782942,30.8796986 16.6918076,32.2177855 16.2862576,33.4313955 C9.80841778,33.2588165 4.61111111,27.9542991 4.61111111,21.4358857 C4.61111111,14.8084687 9.98369411,9.43588568 16.6111111,9.43588568 Z M16.6111111,13.4358857 C15.1134527,13.4358857 13.7119145,13.847425 12.5134136,14.5635864 L23.4834104,25.5335832 C24.1995718,24.3350823 24.6111111,22.9335441 24.6111111,21.4358857 C24.6111111,17.0176077 21.0293891,13.4358857 16.6111111,13.4358857 Z" id="形状结合" fill="#FF7373" fill-rule="nonzero" mask="url(#mask-6)"></path>
            </g>
            <path d="M26,0.722222222 C27.514164,0.722222222 28.7864807,1.64264161 29.1474639,2.88838168 L35.0311111,2.88888889 C35.6275786,2.88888889 36.1111111,3.37242136 36.1111111,3.96888889 L36.1111111,7.94777778 C36.1111111,8.54424531 35.6275786,9.02777778 35.0311111,9.02777778 L16.9688889,9.02777778 C16.3724214,9.02777778 15.8888889,8.54424531 15.8888889,7.94777778 L15.8888889,3.96888889 C15.8888889,3.37242136 16.3724214,2.88888889 16.9688889,2.88888889 L22.8525361,2.88838168 C23.2135193,1.64264161 24.485836,0.722222222 26,0.722222222 Z" id="Combined-Shape" fill="url(#linearGradient-8)" fill-rule="nonzero"></path>
        </g>
    </g>
</svg>