<?xml version="1.0" encoding="UTF-8"?>
<svg width="62px" height="62px" viewBox="0 0 62 62" version="1.1" xmlns="http://www.w3.org/2000/svg" xmlns:xlink="http://www.w3.org/1999/xlink">
    <title>ic-open-source</title>
    <defs>
        <radialGradient cx="42.5324639%" cy="56.5292423%" fx="42.5324639%" fy="56.5292423%" r="108.421869%" gradientTransform="translate(0.425325,0.565292),scale(1.000000,0.883721),rotate(-110.831679),translate(-0.425325,-0.565292)" id="radialGradient-1">
            <stop stop-color="#4679FF" offset="0%"></stop>
            <stop stop-color="#86A0FF" offset="100%"></stop>
        </radialGradient>
    </defs>
    <g id="ic-open-source" stroke="none" stroke-width="1" fill="none" fill-rule="evenodd">
        <g id="蓝色" transform="translate(5.000000, 9.000000)">
            <path d="M1.65708876,7.64720554 C4.03394439,7.08313947 6.54546323,6.24401548 9.19164528,5.12983357 C12.2897819,3.825355 15.3879185,2.22156036 18.486055,0.318449636 L18.4860571,0.318452941 C18.8025776,0.124022033 19.200791,0.121064715 19.5201643,0.310773181 C23.0211567,2.39037083 26.1947002,4.02934747 29.0407949,5.22770311 C31.4760886,6.25308995 33.9113824,7.05681798 36.3466762,7.6388872 C37.2989344,7.86647926 37.9464285,8.7500011 37.8766721,9.72659108 L37,22 C36.3873115,30.5776396 30.9732877,38.0698227 23.0215244,41.3440782 L19,43 L19,43 L14.9784756,41.3440782 C7.02671233,38.0698227 1.61268854,30.5776396 1,22 L0.123974278,9.73563989 C0.0541456931,8.75784817 0.703297208,7.87355561 1.65708876,7.64720554 Z" id="Rectangle" fill="#1ABB9C" opacity="0.300000012"></path>
            <path d="M16.6570888,7.64720554 C19.0339444,7.08313947 21.5454632,6.24401548 24.1916453,5.12983357 C27.2897819,3.825355 30.3879185,2.22156036 33.486055,0.318449636 L33.4860571,0.318452941 C33.8025776,0.124022033 34.200791,0.121064715 34.5201643,0.310773181 C38.0211567,2.39037083 41.1947002,4.02934747 44.0407949,5.22770311 C46.4760886,6.25308995 48.9113824,7.05681798 51.3466762,7.6388872 C52.2989344,7.86647926 52.9464285,8.7500011 52.8766721,9.72659108 L52,22 C51.3873115,30.5776396 45.9732877,38.0698227 38.0215244,41.3440782 L34,43 L34,43 L29.9784756,41.3440782 C22.0267123,38.0698227 16.6126885,30.5776396 16,22 L15.1239743,9.73563989 C15.0541457,8.75784817 15.7032972,7.87355561 16.6570888,7.64720554 Z" id="Rectangle-Copy-13" fill="#FFA800" opacity="0.300000012"></path>
            <path d="M8.65708876,7.64720554 C11.0339444,7.08313947 13.5454632,6.24401548 16.1916453,5.12983357 C19.2897819,3.825355 22.3879185,2.22156036 25.486055,0.318449636 L25.4860571,0.318452941 C25.8025776,0.124022033 26.200791,0.121064715 26.5201643,0.310773181 C30.0211567,2.39037083 33.1947002,4.02934747 36.0407949,5.22770311 C38.4760886,6.25308995 40.9113824,7.05681798 43.3466762,7.6388872 C44.2989344,7.86647926 44.9464285,8.7500011 44.8766721,9.72659108 L44,22 C43.3873115,30.5776396 37.9732877,38.0698227 30.0215244,41.3440782 L26,43 L26,43 L21.9784756,41.3440782 C14.0267123,38.0698227 8.61268854,30.5776396 8,22 L7.12397428,9.73563989 C7.05414569,8.75784817 7.70329721,7.87355561 8.65708876,7.64720554 Z" id="厚度" fill="#6760FF"></path>
            <path d="M8.65708876,8.64720554 C11.0339444,8.08313947 13.5454632,7.24401548 16.1916453,6.12983357 C19.2897819,4.825355 22.3879185,3.22156036 25.486055,1.31844964 L25.4860571,1.31845294 C25.8025776,1.12402203 26.200791,1.12106472 26.5201643,1.31077318 C30.0211567,3.39037083 33.1947002,5.02934747 36.0407949,6.22770311 C38.4760886,7.25308995 40.9113824,8.05681798 43.3466762,8.6388872 C44.2989344,8.86647926 44.9464285,9.7500011 44.8766721,10.7265911 L44,23 C43.3873115,31.5776396 37.9732877,39.0698227 30.0215244,42.3440782 L26,44 L26,44 L21.9784756,42.3440782 C14.0267123,39.0698227 8.61268854,31.5776396 8,23 L7.12397428,10.7356399 C7.05414569,9.75784817 7.70329721,8.87355561 8.65708876,8.64720554 Z" id="Rectangle-Copy-16" fill="url(#radialGradient-1)"></path>
            <path d="M26.4003906,27.1835938 L29.2070312,17.5859375 C29.4355469,16.8125 29.0429688,16.0976562 28.2871094,15.875 C27.5371094,15.6523437 26.828125,16.0507812 26.5996094,16.8242188 L23.7929688,26.421875 C23.5644531,27.1953125 23.9570312,27.9160156 24.7070312,28.1386719 C25.4628906,28.3613281 26.171875,27.9570312 26.4003906,27.1835938 Z M32.0605469,26.2050781 L35.5410156,23.0644531 C36.203125,22.4609375 36.203125,21.5292969 35.5410156,20.9316406 L32.0605469,17.7851562 C31.4628906,17.2519531 30.6367188,17.2871094 30.1152344,17.8671875 C29.59375,18.453125 29.6347656,19.2734375 30.2324219,19.8066406 L32.6523438,21.9980469 L30.2324219,24.1835938 C29.6347656,24.7226562 29.59375,25.5371094 30.1152344,26.1289062 C30.6367188,26.7089844 31.4628906,26.7441406 32.0605469,26.2050781 Z M22.8847656,26.140625 C23.40625,25.5546875 23.3652344,24.734375 22.7675781,24.2011719 L20.3417969,22.0097656 L22.7675781,19.8242188 C23.3652344,19.2851562 23.40625,18.4707031 22.8847656,17.8789062 C22.3574219,17.2988281 21.5429688,17.2578125 20.9394531,17.8027344 L17.4589844,20.9433594 C16.7910156,21.546875 16.7910156,22.4785156 17.4589844,23.0820312 L20.9394531,26.2226562 C21.5371094,26.7617188 22.3574219,26.7207031 22.8847656,26.140625 Z" id="􀙚" fill="#FFFFFF" fill-rule="nonzero"></path>
        </g>
    </g>
</svg>