<?xml version="1.0" encoding="UTF-8"?>
<svg width="40px" height="40px" viewBox="0 0 40 40" version="1.1" xmlns="http://www.w3.org/2000/svg" xmlns:xlink="http://www.w3.org/1999/xlink">
    <title>DeName-头像-暗色背景</title>
    <g id="页面-1" stroke="none" stroke-width="1" fill="none" fill-rule="evenodd">
        <g id="DeName-头像-暗色背景" fill-rule="nonzero">
            <rect id="矩形" fill="#262B3A" x="0" y="0" width="40" height="40" rx="19.9995124"></rect>
            <path d="M9.48828592,27.4370414 C8.97040937,27.4365039 8.55072156,27.0168161 8.55018275,26.4989395 L8.55018275,13.5010605 C8.54961126,13.1575924 8.73659708,12.8412124 9.03776299,12.6760769 C9.06409225,12.6614496 9.09237183,12.6487725 9.11967625,12.6360955 C9.17628342,12.6124994 9.23507656,12.5945348 9.29520466,12.5824618 C9.32736895,12.5755345 9.35993925,12.570649 9.39272045,12.5678344 C9.4239255,12.5678344 9.45610571,12.5629586 9.49023623,12.5629586 L20.2374509,12.5629586 C20.1905405,13.4673733 19.8186285,14.3244331 19.1901314,14.9764743 L19.082864,15.0886175 L19.1677028,15.2183135 C19.2652186,15.3655623 19.3520076,15.5108608 19.4270948,15.6522587 C19.9283259,16.5884102 20.2384261,17.6279285 20.2384261,19.9156488 L20.2384261,20.0843512 C20.2384261,22.3720715 19.9283259,23.4115898 19.4270948,24.3477413 C18.9102292,25.3165604 18.11697,26.1098197 17.1481509,26.6266852 C16.2129745,27.1269412 15.1734562,27.4370414 12.8857359,27.4370414 L9.48828592,27.4370414 Z M11.7974597,24.1897657 L12.8896365,24.1897657 C14.8233745,24.1897657 15.3031522,23.9332992 15.6200785,23.7626466 C16.0227959,23.548141 16.3524512,23.2184857 16.5669568,22.8157683 C16.7366342,22.4978668 16.9940759,22.0180892 16.9940759,20.0853263 L16.9940759,19.916624 C16.9940759,17.982886 16.7366342,17.5031083 16.5669568,17.186182 C16.3521638,16.7836774 16.0225831,16.4540967 15.6200785,16.2393037 C15.302177,16.0686511 14.8223994,15.8121846 12.8896365,15.8121846 L11.7974597,15.8121846 L11.7974597,24.1897657 Z" id="形状" fill="#FD4974"></path>
            <path d="M31.2294303,22.5144445 C31.3248876,22.5147908 31.4046365,22.441829 31.4127599,22.3467174 C31.4322631,22.0922012 31.4498159,21.6397279 31.4498159,20.8361979 C31.446331,20.4656803 31.3995307,20.0968413 31.3103684,19.737195 C30.7389259,17.4416734 29.0519028,16.1291109 26.681294,16.1291109 C25.2624394,16.1291109 24.0483678,16.6264414 23.1804773,17.5674687 C22.3642702,18.4451108 21.9127721,19.6621078 21.9127721,20.9805212 L21.9127721,22.6714449 C21.9186203,25.2956011 24.0396213,27.424003 26.6637412,27.4389917 L27.3336746,27.4389917 C28.8412687,27.4389917 30.2103903,26.7144494 30.9554109,25.5354836 C30.9820439,25.4932997 30.990641,25.4421949 30.979276,25.393619 C30.9679111,25.345043 30.9375342,25.3030566 30.8949511,25.2770667 L29.1991516,24.2677783 C29.1188625,24.2192814 29.0148413,24.240001 28.9592628,24.3155611 C28.5497064,24.8688108 27.903047,25.1962974 27.2147054,25.1990541 L26.6725176,25.1990541 C25.4967137,25.2026095 24.533448,24.2661974 24.5037665,23.0907628 L24.5037665,22.5056681 L31.2294303,22.5144445 Z M24.4930398,20.639216 L24.5076672,20.4305322 C24.5837295,19.3130013 25.4750238,18.4860674 26.62571,18.4655891 L26.6910456,18.4655891 C27.3336746,18.4655891 27.8397816,18.6469685 28.1966893,19.0029011 C28.5794454,19.3847079 28.8049513,19.8962723 28.8285916,20.4363831 L28.837368,20.6401911 L24.4930398,20.639216 Z" id="形状" fill="#FD4974"></path>
        </g>
    </g>
</svg>