<?xml version="1.0" encoding="UTF-8"?>
<svg width="44px" height="44px" viewBox="0 0 44 44" version="1.1" xmlns="http://www.w3.org/2000/svg" xmlns:xlink="http://www.w3.org/1999/xlink">
    <title>ic-registrar-gogodas</title>
    <defs>
        <polygon id="path-1" points="0 0 23.4366162 0 23.4366162 28.3040673 0 28.3040673"></polygon>
        <polygon id="path-3" points="0 0 31.810122 0 31.810122 9.66890108 0 9.66890108"></polygon>
    </defs>
    <g id="ic-registrar-gogodas" stroke="none" stroke-width="1" fill="none" fill-rule="evenodd">
        <g id="编组" transform="translate(6.000000, 2.000000)">
            <g transform="translate(4.186690, 0.000000)">
                <mask id="mask-2" fill="white">
                    <use xlink:href="#path-1"></use>
                </mask>
                <g id="Clip-2"></g>
                <path d="M11.7176831,-0.000125001953 C16.5902592,-0.000125001953 21.5815872,1.97865592 23.0216097,7.50874232 C23.1866123,8.13875217 22.6991047,8.75251176 22.0428444,8.75251176 L18.4715386,8.75251176 C18.0690323,8.75251176 17.7065267,8.51500805 17.5465242,8.15000234 C16.4177565,5.57121205 14.1877217,5.2349568 11.7176831,5.2349568 C8.17012766,5.2349568 5.48633572,6.78998109 5.48633572,12.6488226 L5.48633572,15.8188722 C5.48633572,20.5476961 8.17012766,23.231488 11.7176831,23.231488 C15.1377365,23.231488 17.9777809,21.245207 17.9777809,16.6051345 L13.3052079,16.6051345 C12.7476992,16.6051345 12.2951921,16.1576275 12.2951921,15.6051188 L12.2951921,13.5163362 C12.2951921,12.9638276 12.7476992,12.5163206 13.3052079,12.5163206 L22.4266004,12.5163206 C22.9841091,12.5163206 23.4366162,12.9638276 23.4366162,13.5163362 L23.4366162,16.3601306 C23.4366162,24.5402584 17.4952734,28.3040673 11.7176831,28.3040673 C5.94134283,28.3040673 0,24.5402584 0,16.3601306 L0,11.9425616 C0,3.76368381 5.94134283,-0.000125001953 11.7176831,-0.000125001953" id="Fill-1" fill="#000000" mask="url(#mask-2)"></path>
            </g>
            <g transform="translate(0.000000, 30.331099)">
                <mask id="mask-4" fill="white">
                    <use xlink:href="#path-3"></use>
                </mask>
                <g id="Clip-4"></g>
                <path d="M28.3941937,0 C25.0603916,2.96504633 20.6240723,4.59882186 15.9052485,4.59882186 C11.1851748,4.59882186 6.75010547,2.96504633 3.41630338,0 C2.00003125,0.832513008 0.857513399,2.08378256 0,3.77505899 C4.27381678,7.57636838 9.92265504,9.66890108 15.9052485,9.66890108 C21.887842,9.66890108 27.5366803,7.57636838 31.810497,3.77505899 C30.9517336,2.08378256 29.8092158,0.832513008 28.3941937,0" id="Fill-3" fill="#FD4974" mask="url(#mask-4)"></path>
            </g>
        </g>
    </g>
</svg>