<?xml version="1.0" encoding="UTF-8"?>
<svg width="24px" height="24px" viewBox="0 0 24 24" version="1.1" xmlns="http://www.w3.org/2000/svg" xmlns:xlink="http://www.w3.org/1999/xlink">
    <title>ic-register</title>
    <g id="页面-1" stroke="none" stroke-width="1" fill="none" fill-rule="evenodd">
        <g id="体验测试版本" transform="translate(-539.000000, -270.000000)" fill="#667FFF">
            <g id="弹窗/说明类/带链接" transform="translate(490.000000, 139.000000)">
                <g id="Group" transform="translate(49.000000, 131.000000)">
                    <path d="M21.5833333,1 C21.5833333,2.66822321 20.7233491,4.13558633 19.422526,4.98294395 C20.7771538,6.72495659 21.5833333,8.91416497 21.5833333,11.2916667 C21.5833333,13.5625952 20.8478091,15.6617328 19.6019917,17.3638484 L22.7029191,20.4637476 C23.3212492,21.0820777 23.3212492,22.0845889 22.7029191,22.7029191 C22.1321528,23.2736853 21.234037,23.3175904 20.6129092,22.8346344 L20.4637476,22.7029191 L17.3638484,19.6019917 C15.6617328,20.8478091 13.5625952,21.5833333 11.2916667,21.5833333 C5.60773612,21.5833333 1,16.9755972 1,11.2916667 C1,5.60773612 5.60773612,1 11.2916667,1 L11.2916667,1 L21.5833333,1 Z M11.2916667,4.95833333 C7.79386325,4.95833333 4.95833333,7.79386325 4.95833333,11.2916667 C4.95833333,14.7894701 7.79386325,17.625 11.2916667,17.625 C14.7894701,17.625 17.625,14.7894701 17.625,11.2916667 C17.625,7.79386325 14.7894701,4.95833333 11.2916667,4.95833333 Z" id="Combined-Shape"></path>
                </g>
            </g>
        </g>
    </g>
</svg>