<?xml version="1.0" encoding="UTF-8"?>
<svg width="44px" height="44px" viewBox="0 0 44 44" version="1.1" xmlns="http://www.w3.org/2000/svg" xmlns:xlink="http://www.w3.org/1999/xlink">
    <title>ic-registrar-das</title>
    <g id="ic-registrar-das" stroke="none" stroke-width="1" fill="none" fill-rule="evenodd">
        <g id="DAS-Logo/horizontal/full-color/white-wordmark" transform="translate(5.000000, 3.000000)" fill-rule="nonzero">
            <g id="编组" transform="translate(0.000000, 0.000000)">
                <path d="M0,30.8623606 L0.00277028505,30.8582051 C1.20091857,29.1572501 2.75089305,27.7333236 4.55019319,26.6833856 L4.60559889,26.6515273 C8.13078662,30.0672888 12.7100678,31.7765546 17.2907341,31.7765546 C21.8714005,31.7765546 26.4506816,30.0686739 29.9772545,26.6515273 L30.0285048,26.6806153 C31.8319603,27.7305533 33.3860903,29.1572501 34.5856237,30.8623606 L34.5856237,30.8623606 C29.816578,35.6203251 23.5557338,38 17.2935044,38 C11.0312751,38 4.76627542,35.6203251 0,30.8623606 Z" id="路径" fill="#2471FE"></path>
                <path d="M30.9177663,0 L17.2907341,0 L17.2907341,0 L17.2907341,0 C9.77633593,0 3.66370198,6.10155282 3.66370198,13.6007144 C3.66370198,21.0998761 9.77772108,27.2014289 17.2907341,27.2014289 C24.8037472,27.2014289 30.9177663,21.0998761 30.9177663,13.6007144 C30.9177663,10.5395495 29.8872202,7.72216957 28.1710287,5.4463804 C29.83597,4.20806299 30.9177663,2.23284975 30.9177663,0 Z M17.2921193,20.9765984 C13.2184151,20.9765984 9.9023839,17.6674929 9.9023839,13.6007144 C9.9023839,9.53393599 13.21703,6.2248305 17.2921193,6.2248305 C21.3672086,6.2248305 24.6804695,9.53393599 24.6804695,13.6007144 C24.6804695,17.6674929 21.3658234,20.9765984 17.2921193,20.9765984 Z" id="形状" fill="#00DF9B"></path>
            </g>
        </g>
    </g>
</svg>