<?xml version="1.0" encoding="UTF-8"?>
<svg width="15px" height="14px" viewBox="0 0 15 14" version="1.1" xmlns="http://www.w3.org/2000/svg" xmlns:xlink="http://www.w3.org/1999/xlink">
    <title>ic-supported</title>
    <g id="页面-1" stroke="none" stroke-width="1" fill="none" fill-rule="evenodd">
        <g id="Market备份-13" transform="translate(-1235.000000, -3089.000000)" fill="#22C493" fill-rule="nonzero">
            <g id="编组-3备份" transform="translate(720.000000, 2886.000000) scale(-1, 1) translate(-720.000000, -2886.000000) translate(0.000000, 2486.000000)">
                <g id="编组-26" transform="translate(396.999756, 398.000000) scale(-1, 1) translate(-396.999756, -398.000000) translate(189.999512, 179.000000)">
                    <path d="M404.831426,438 C405.383467,438 405.803248,437.794322 406.09077,437.382966 L413.707216,426.101251 C413.810724,425.945603 413.88548,425.796903 413.931483,425.655152 C413.977487,425.513401 414.000488,425.375819 414.000488,425.242406 C414.000488,424.88108 413.876854,424.583681 413.629585,424.350208 C413.382317,424.116736 413.066043,424 412.680764,424 C412.421995,424 412.203479,424.05003 412.025215,424.150089 C411.846952,424.250149 411.674439,424.419694 411.507676,424.658725 L404.805549,434.906492 L401.389792,430.812388 C401.108021,430.478856 400.75437,430.312091 400.328838,430.312091 C399.943559,430.312091 399.625848,430.431606 399.375704,430.670637 C399.12556,430.909668 399.000488,431.209847 399.000488,431.571173 C399.000488,431.73238 399.02924,431.886639 399.086745,432.033949 C399.144249,432.181259 399.247757,432.335517 399.397268,432.496724 L403.597958,437.432996 C403.931483,437.810999 404.342639,438 404.831426,438 Z" id="ic-supported"></path>
                </g>
            </g>
        </g>
    </g>
</svg>