<?xml version="1.0" encoding="UTF-8"?>
<svg width="24px" height="24px" viewBox="0 0 24 24" version="1.1" xmlns="http://www.w3.org/2000/svg" xmlns:xlink="http://www.w3.org/1999/xlink">
    <title>ic-transfer</title>
    <g id="页面-1" stroke="none" stroke-width="1" fill="none" fill-rule="evenodd">
        <g id="体验测试版本" transform="translate(-539.000000, -387.000000)" fill="#667FFF" fill-rule="nonzero">
            <g id="弹窗/说明类/带链接" transform="translate(490.000000, 139.000000)">
                <g id="编组-3" transform="translate(49.000000, 248.000000)">
                    <path d="M12.8432617,21.0302734 C13.3588867,21.0302734 13.7670898,20.7939453 14.2827148,20.3535156 L22.3178711,12.7802734 C22.6938477,12.4042969 22.8442383,12.0068359 22.8442383,11.6630859 C22.8442383,11.3085938 22.7045898,10.921875 22.3178711,10.5351562 L14.2827148,3.03710938 C13.7026367,2.54296875 13.3803711,2.29589844 12.8647461,2.29589844 C12.1235352,2.29589844 11.597168,2.88671875 11.597168,3.59570312 L11.597168,7.36621094 L11.3178711,7.36621094 C4.10986328,7.36621094 0.897949219,11.9853516 0.897949219,19.4511719 C0.897949219,20.4609375 1.41357422,21.0195312 2.01513672,21.0195312 C2.47705078,21.0195312 2.96044922,20.890625 3.32568359,20.2138672 C5.04443359,17.0019531 7.45068359,15.9707031 11.3178711,15.9707031 L11.597168,15.9707031 L11.597168,19.7841797 C11.597168,20.4931641 12.1235352,21.0302734 12.8432617,21.0302734 Z" id="transfer"></path>
                </g>
            </g>
        </g>
    </g>
</svg>