<?xml version="1.0" encoding="UTF-8"?>
<svg width="36px" height="36px" viewBox="0 0 36 36" version="1.1" xmlns="http://www.w3.org/2000/svg" xmlns:xlink="http://www.w3.org/1999/xlink">
    <title>ic-vs</title>
    <g id="页面-1" stroke="none" stroke-width="1" fill="none" fill-rule="evenodd">
        <g id="Reverse-Record" transform="translate(-944.000000, -828.000000)" fill="#1D2939" fill-rule="nonzero">
            <g id="编组-20" transform="translate(376.000000, 565.000000)">
                <g id="编组-10" transform="translate(534.000000, 232.000000)">
                    <path d="M38.6123047,66.0097656 C39.1663411,66.0097656 39.6180013,65.7989909 39.9672852,65.3774414 C40.316569,64.9558919 40.7441406,64.2874349 41.25,63.3720703 C41.6113281,62.7457682 41.9726562,62.0411784 42.3339844,61.2583008 C42.6953125,60.4754232 43.0506185,59.6865234 43.3999023,58.8916016 C43.7491862,58.0966797 44.0804036,57.3198242 44.3935547,56.5610352 C44.7067057,55.8022461 44.983724,55.1337891 45.2246094,54.5556641 C45.3932292,54.1702474 45.6160482,53.5861003 45.8930664,52.8032227 C46.1700846,52.0203451 46.4772135,51.1350911 46.8144531,50.1474609 C47.1516927,49.1598307 47.5069987,48.1119792 47.8803711,47.0039062 C48.2537435,45.8958333 48.6150716,44.8238932 48.9643555,43.7880859 C49.3136393,42.7522786 49.6448568,41.8007812 49.9580078,40.9335937 C50.2711589,40.0664062 50.5240885,39.3678385 50.7167969,38.8378906 C51.0058594,38.1152344 51.3069661,37.4407552 51.6201172,36.8144531 C51.8850911,36.2845052 52.1801758,35.784668 52.5053711,35.3149414 C52.8305664,34.8452148 53.1497396,34.5501302 53.4628906,34.4296875 C53.2460938,33.9960937 52.9871419,33.5745443 52.6860352,33.1650391 C52.3849284,32.7555339 52.0597331,32.4484049 51.7104492,32.2436523 C51.3611654,32.0388997 51.0058594,31.9847005 50.6445312,32.0810547 C50.2832031,32.1774089 49.9580078,32.5026042 49.6689453,33.0566406 C49.3798828,33.6347656 49.0727539,34.3032227 48.7475586,35.0620117 C48.4223633,35.8208008 48.1092122,36.5795898 47.8081055,37.3383789 C47.5069987,38.097168 47.2299805,38.8198242 46.9770508,39.5063477 C46.7241211,40.1928711 46.5253906,40.7288411 46.3808594,41.1142578 C46.2845052,41.3792318 46.1098633,41.9091797 45.8569336,42.7041016 C45.6040039,43.4990234 45.3089193,44.4324544 44.9716797,45.5043945 C44.6344401,46.5763346 44.2670898,47.7386068 43.8696289,48.9912109 C43.472168,50.2438151 43.0927734,51.4482422 42.7314453,52.6044922 C42.3701172,53.7607422 42.0449219,54.8146159 41.7558594,55.7661133 C41.4667969,56.7176107 41.25,57.4462891 41.1054688,57.9521484 C40.8886719,58.7229818 40.6297201,59.487793 40.3286133,60.246582 C40.0275065,61.0053711 39.7203776,61.5834961 39.4072266,61.980957 C39.0940755,62.378418 38.7929688,62.4928385 38.5039062,62.3242187 C38.2148438,62.155599 37.9619141,61.5172526 37.7451172,60.4091797 C37.5283203,59.2770182 37.3717448,58.1629232 37.2753906,57.0668945 C37.1790365,55.9708659 37.1067708,54.7845052 37.0585938,53.5078125 C37.0104167,51.8938802 37.0224609,50.2257487 37.0947266,48.503418 C37.1669922,46.7810872 37.3476562,45.0286458 37.6367188,43.2460937 C37.9257812,41.4635417 38.3352865,39.6809896 38.8652344,37.8984375 C39.3951823,36.1158854 40.09375,34.3574219 40.9609375,32.6230469 C40.7682292,32.5266927 40.5514323,32.4664714 40.3105469,32.4423828 C40.0696615,32.4182943 39.828776,32.3942057 39.5878906,32.3701172 L38.7207031,32.3701172 C37.9257812,32.4182943 37.3837891,32.5688477 37.0947266,32.8217773 C36.8056641,33.074707 36.5768229,33.5504557 36.4082031,34.2490234 C36.2877604,34.6826172 36.1010742,35.4233398 35.8481445,36.4711914 C35.5952148,37.519043 35.3422852,38.7174479 35.0893555,40.0664062 C34.8364258,41.4153646 34.6075846,42.8546549 34.402832,44.3842773 C34.1980794,45.9138997 34.0836589,47.4013672 34.0595703,48.8466797 C34.0595703,49.7620443 34.0836589,50.815918 34.1318359,52.0083008 C34.180013,53.2006836 34.2763672,54.4291992 34.4208984,55.6938477 C34.5654297,56.9584961 34.7521159,58.2050781 34.980957,59.4335937 C35.2097982,60.6621094 35.4928385,61.758138 35.8300781,62.7216797 C36.1673177,63.6852214 36.5647786,64.468099 37.0224609,65.0703125 C37.4801432,65.672526 38.0100911,65.9856771 38.6123047,66.0097656 Z M54.3120117,65.9916992 C54.8540039,66.0760091 55.3719076,66.0880534 55.8657227,66.027832 C56.3595378,65.9676107 56.7871094,65.9013672 57.1484375,65.8291016 C57.6061198,65.7327474 58.1842448,65.5219727 58.8828125,65.1967773 C59.5813802,64.871582 60.2739258,64.3476562 60.9604492,63.625 C61.6469727,62.9023437 62.2792969,61.9448242 62.8574219,60.7524414 C63.4355469,59.5600586 63.8570964,58.0725911 64.1220703,56.2900391 C64.2906901,55.0615234 64.3027344,53.9414062 64.1582031,52.9296875 C64.0136719,51.9179687 63.7607422,51.0026042 63.3994141,50.1835937 C63.0380859,49.3645833 62.6165365,48.6298828 62.1347656,47.9794922 C61.6529948,47.3291016 61.171224,46.7449544 60.6894531,46.2270508 C60.2076823,45.7091471 59.7620443,45.2454427 59.3525391,44.8359375 C58.9430339,44.4264323 58.6419271,44.0530599 58.4492188,43.7158203 C58.3046875,43.4749349 58.148112,43.1979167 57.9794922,42.8847656 C57.8108724,42.5716146 57.6542969,42.234375 57.5097656,41.8730469 C57.3652344,41.5117187 57.2508138,41.1142578 57.1665039,40.6806641 C57.082194,40.2470703 57.0641276,39.7773437 57.1123047,39.2714844 C57.1604818,38.6451823 57.3712565,38.0309245 57.7446289,37.4287109 C58.1180013,36.8264974 58.5696615,36.2784831 59.0996094,35.784668 C59.6295573,35.2908529 60.2137044,34.8572591 60.8520508,34.4838867 C61.4903971,34.1105143 62.1046549,33.8334961 62.6948242,33.652832 C63.2849935,33.472168 63.8149414,33.3999023 64.284668,33.4360352 C64.7543945,33.472168 65.1097005,33.6347656 65.3505859,33.9238281 C65.7600911,34.4778646 66.0130208,35.0559896 66.109375,35.6582031 C66.2057292,36.2604167 66.2117513,36.8626302 66.1274414,37.4648437 C66.0431315,38.0670573 65.8986003,38.6512044 65.6938477,39.2172852 C65.4890951,39.7833659 65.2843424,40.2892253 65.0795898,40.7348633 C64.8748372,41.1805013 64.688151,41.5538737 64.5195312,41.8549805 C64.3509115,42.1560872 64.2786458,42.3427734 64.3027344,42.4150391 C64.4472656,42.4873047 64.6158854,42.5354818 64.8085938,42.5595703 C65.0013021,42.5836589 65.1819661,42.5957031 65.3505859,42.5957031 C65.5432943,42.5957031 65.7360026,42.5716146 65.9287109,42.5234375 C66.6272786,42.3789062 67.133138,42.2223307 67.4462891,42.0537109 C67.7594401,41.8850911 67.9882812,41.7285156 68.1328125,41.5839844 C68.2050781,41.5358073 68.3556315,41.2527669 68.5844727,40.7348633 C68.8133138,40.2169596 69.0060221,39.5786133 69.1625977,38.8198242 C69.3191732,38.0610352 69.3733724,37.2360026 69.3251953,36.3447266 C69.2770182,35.4534505 69,34.6103516 68.4941406,33.8154297 C67.2897135,31.7438151 64.7483724,31.0934245 60.8701172,31.8642578 C60.1715495,32.0087891 59.3706055,32.3460286 58.4672852,32.8759766 C57.5639648,33.4059245 56.7329102,34.0924479 55.9741211,34.9355469 C55.215332,35.7786458 54.6131185,36.7602539 54.1674805,37.8803711 C53.7218424,39.0004883 53.5953776,40.235026 53.7880859,41.5839844 C53.9326172,42.547526 54.2156576,43.4388021 54.637207,44.2578125 C55.0587565,45.0768229 55.5345052,45.835612 56.0644531,46.5341797 C56.594401,47.2327474 57.1303711,47.8771159 57.6723633,48.4672852 C58.2143555,49.0574544 58.6780599,49.6054687 59.0634766,50.1113281 C59.4488932,50.6171875 59.8282878,51.2254232 60.2016602,51.9360352 C60.5750326,52.6466471 60.8761393,53.4114583 61.1049805,54.2304687 C61.3338216,55.0494792 61.4422201,55.9046224 61.4301758,56.7958984 C61.4181315,57.6871745 61.2073568,58.5664062 60.7978516,59.4335937 C59.5693359,62.2278646 58.0758464,63.6009115 56.3173828,63.5527344 C55.5947266,63.5286458 55.0166016,63.3058268 54.5830078,62.8842773 C54.1494141,62.4627279 53.8181966,61.9568685 53.5893555,61.3666992 C53.3605143,60.7765299 53.2280273,60.1622721 53.1918945,59.5239258 C53.1557617,58.8855794 53.1858724,58.3375651 53.2822266,57.8798828 C53.3304036,57.7353516 53.4026693,57.5667318 53.4990234,57.3740234 C53.6435547,57.0126953 53.8964844,56.6272786 54.2578125,56.2177734 C53.9928385,56.1214193 53.7097982,56.0792643 53.4086914,56.0913086 C53.1075846,56.1033529 52.8245443,56.1334635 52.5595703,56.1816406 C52.2464193,56.2539062 51.9332682,56.3382161 51.6201172,56.4345703 C51.3551432,56.555013 51.1022135,56.6875 50.8613281,56.8320312 C50.6445312,56.952474 50.4277344,57.0970052 50.2109375,57.265625 C49.9941406,57.4342448 49.789388,57.6269531 49.5966797,57.84375 C49.3317057,58.686849 49.2654622,59.4998372 49.3979492,60.2827148 C49.5304362,61.0655924 49.7291667,61.758138 49.9941406,62.3603516 C50.2832031,63.0589193 50.6806641,63.7093099 51.1865234,64.3115234 C51.6201172,64.8414714 52.1139323,65.2329102 52.6679688,65.4858398 C53.2220052,65.7387695 53.7700195,65.9073893 54.3120117,65.9916992 Z" id="ic-vs"></path>
                </g>
            </g>
        </g>
    </g>
</svg>