<?xml version="1.0" encoding="UTF-8"?>
<svg width="295px" height="220px" viewBox="0 0 295 220" version="1.1" xmlns="http://www.w3.org/2000/svg" xmlns:xlink="http://www.w3.org/1999/xlink">
    <title>im-planet</title>
    <g id="页面-1" stroke="none" stroke-width="1" fill="none" fill-rule="evenodd">
        <g id="im-planet" transform="translate(0.272727, -0.004188)">
            <path d="M172.760688,6.64239171e-13 L294.727273,0.00418767928 L294.727273,219.004188 L136.861397,219.005152 C113.73611,194.049906 99.5611285,160.405344 99.5611285,123.3904 C99.5611285,69.8339337 129.236227,23.3334533 172.760688,6.64239171e-13 Z M9.95610207,43.7541877 C15.4547328,43.7541877 19.9122257,48.2109788 19.9122257,53.7087224 C19.9122257,59.2064659 15.4547328,63.6632786 9.95610207,63.6632786 C4.45749288,63.6632786 0,59.2064659 0,53.7087224 C0,48.2109788 4.45749288,43.7541877 9.95610207,43.7541877 Z" id="形状结合" fill="#8BE4C5"></path>
            <path d="M50.3845512,59.2225347 C54.4626199,48.251724 78.6787435,46.1633985 114.482845,51.6595326 C112.17676,55.8540144 110.072566,60.1793565 108.192927,64.6267946 C102.066728,65.1251519 98.2382643,66.7196533 97.1995869,69.511542 C96.1433149,72.3514833 98.0658969,76.1917657 102.50212,80.7619042 C118.345901,97.0759268 166.225857,122.683149 225.219929,145.205633 C250.114544,154.71237 273.879704,162.483122 294.728109,168.164884 L294.727301,193.386994 C270.594429,186.876672 244.160843,178.295004 216.80047,167.850516 C169.157295,149.657907 127.300356,129.097119 97.410722,110.196413 C64.5467071,89.4128906 46.1376937,70.6388146 50.3845512,59.2225347 Z" id="形状结合" fill="#89E2C6"></path>
        </g>
    </g>
</svg>