<?xml version="1.0" encoding="UTF-8"?>
<svg width="601px" height="529px" viewBox="0 0 601 529" version="1.1" xmlns="http://www.w3.org/2000/svg" xmlns:xlink="http://www.w3.org/1999/xlink">
    <title>logo2</title>
    <g id="页面-1" stroke="none" stroke-width="1" fill="none" fill-rule="evenodd">
        <g id="Market备份-12" transform="translate(-720.000000, -134.000000)" fill-rule="nonzero">
            <g id="logo2" transform="translate(720.000000, 134.000000)">
                <path d="M340.643433,399.808451 C263.206608,399.808451 200.191549,336.806148 200.191549,259.364789 C200.191549,181.92343 263.206608,118.921127 340.643433,118.921127 C418.080259,118.921127 481.078873,181.92343 481.078873,259.364789 C481.078873,336.806148 418.080259,399.808451 340.643433,399.808451 M600,0 L341.008222,0 C198.200133,0 82,116.170931 82,259 C82,401.812623 198.200133,518 341.008222,518 C483.816312,518 600,401.812623 600,259 C600,200.766525 580.660719,146.956886 548.099686,103.67236 C579.608242,80.040193 600,42.3964696 600,0" id="Fill-10" fill="#00DF9B"></path>
                <path d="M37.7730956,453.589288 C47.5364746,453.589288 56.1657355,457.188549 63.6647854,464.376987 C71.1596734,471.561436 74.9544862,480.208446 75.044535,490.3211 C74.9548071,497.238284 73.1599276,503.513296 69.6566392,509.145165 C66.1476159,514.786253 61.5951503,519.272929 55.9983993,522.604328 C50.4110799,525.930114 44.3359139,527.592655 37.7730956,527.592655 C27.4778769,527.592655 18.6692404,523.976037 11.3472052,516.742754 C4.02754694,509.511819 0.412876079,500.70583 0.501596311,490.316789 C0.41289589,480.204941 4.02858235,471.5573 11.3461092,464.372819 C18.668448,457.183614 27.477519,453.589288 37.7730956,453.589288 Z M560.677887,267.42985 L560.677562,317.073247 L596.291,317.072379 L596.291,370.031635 L560.677563,370.032416 L560.677917,457.141336 L560.683131,457.64949 C560.739699,460.393027 561.255413,462.702247 562.216646,464.581021 C563.257368,466.615158 564.864008,468.131178 567.040661,469.124867 C569.163064,470.09379 571.883867,470.586454 575.207297,470.586454 C577.480653,470.586454 580.140611,470.314853 583.186988,469.769233 C585.881302,469.28667 587.949298,468.875369 589.391099,468.535881 L589.391099,468.535881 L599.985279,519.917656 C596.396481,520.957028 591.915504,522.094205 586.222667,523.423918 C580.086832,524.857106 572.80879,525.796513 564.389167,526.244365 C547.384657,527.139339 533.10803,525.378813 521.562064,520.948385 C510.073045,516.539807 501.429717,509.574761 495.641627,500.046694 L495.641627,500.046694 L495.327344,499.522064 C489.736765,490.057283 487.038799,478.267013 487.214116,464.150934 L487.214116,464.150934 L487.213832,370.03242 L460.77408,370.031639 L460.77408,317.072383 L487.213831,317.073251 L487.214113,267.42985 L560.677887,267.42985 Z M188.898608,248.004518 L188.898608,353.225069 L190.818795,353.225069 L191.235961,352.161229 C193.90328,345.488324 197.732753,339.334381 202.723165,333.698658 C207.894553,327.858556 214.315165,323.179034 221.982854,319.657246 C229.657189,316.132406 238.581542,314.374404 248.753791,314.374404 C262.334959,314.374404 275.267714,317.994798 287.55302,325.23196 C299.842458,332.471556 309.845924,343.872715 317.576261,359.422757 C325.32699,375.01382 329.192677,395.266083 329.192677,420.174141 C329.192677,444.008975 325.504125,463.7693 318.111318,479.451012 C310.737687,495.092047 300.911384,506.761555 288.620851,514.448725 C276.335799,522.132466 262.866827,525.973878 248.214199,525.973878 C238.574451,525.973878 229.982557,524.392802 222.439969,521.224022 C214.905929,518.058834 208.485488,513.735702 203.180322,508.252212 C197.981154,502.878282 193.959031,496.798117 191.114394,490.011431 L190.814117,489.281583 L188.359016,489.281583 L188.359016,523.275915 L115.434833,523.275915 L115.434833,248.004518 L188.898608,248.004518 Z M220.694978,370.571217 C213.737755,370.571217 207.767,372.567143 202.77886,376.548502 C197.812592,380.512404 193.977952,386.203067 191.289177,393.631377 C188.619061,401.008139 187.279831,409.85517 187.279831,420.174141 C187.279831,430.312719 188.618884,439.069858 191.289177,446.447108 C193.977028,453.872866 197.80986,459.607664 202.774538,463.661393 C207.763881,467.73526 213.736153,469.777065 220.694978,469.777065 C227.654753,469.777065 233.581477,467.779625 238.47972,463.796942 C243.355525,459.832502 247.099896,454.14118 249.697909,446.711774 C252.277014,439.336439 253.570532,430.491074 253.570532,420.174141 C253.570532,409.857208 252.277014,401.011843 249.697909,393.636508 C247.099896,386.207102 243.355525,380.51578 238.47972,376.55134 C233.581477,372.568656 227.654753,370.571217 220.694978,370.571217 Z M434.952821,317.072367 L434.952821,523.275915 L361.489046,523.275915 L361.489046,317.072367 L434.952821,317.072367 Z M398.220934,227.5 C408.249124,227.5 416.792352,230.780779 423.84816,237.348449 C430.888788,243.90199 434.413229,251.782784 434.413229,260.994332 C434.413229,270.20588 430.888788,278.086674 423.84816,284.640215 C416.792842,291.207429 408.294766,294.488664 398.355832,294.488664 C388.326768,294.488664 379.760756,291.207341 372.660011,284.639152 C365.575421,278.085906 362.028639,270.205571 362.028639,260.994332 C362.028639,251.783093 365.575421,243.902758 372.660011,237.349512 C379.760268,230.781775 388.28113,227.5 398.220934,227.5 Z" id=".bit备份" stroke="#000000"></path>
            </g>
        </g>
    </g>
</svg>