<?xml version="1.0" encoding="UTF-8"?>
<svg width="44px" height="44px" viewBox="0 0 44 44" version="1.1" xmlns="http://www.w3.org/2000/svg" xmlns:xlink="http://www.w3.org/1999/xlink">
    <title>medium</title>
    <g id="medium" stroke="none" stroke-width="1" fill="none" fill-rule="evenodd">
        <g id="reddit" fill-rule="nonzero">
            <rect id="Rectangle-Copy-48" fill="#FCA1A1" opacity="0" x="0" y="0" width="44" height="44"></rect>
            <path d="M7.50155055,13.1513335 C7.5486872,12.687823 7.36799669,12.2243126 7.02232789,11.9100682 L3.47922266,7.63634484 L3.47922266,7 L14.4934877,7 L23.00951,25.6739715 L30.4963821,7 L41,7 L41,7.63634484 L37.9675419,10.5431052 C37.7082903,10.739508 37.5747364,11.0694645 37.6297292,11.391565 L37.6297292,32.7601819 C37.5747364,33.0822824 37.7082903,33.412239 37.9675419,33.6086417 L40.929295,36.5154021 L40.929295,37.151747 L26.0262559,37.151747 L26.0262559,36.5154021 L29.0979946,33.5379367 C29.3965268,33.2394046 29.3965268,33.1451313 29.3965268,32.6894769 L29.3965268,15.421749 L20.8569361,37.0967542 L19.7020881,37.0967542 L9.77196609,15.421749 L9.77196609,29.9476949 C9.68554889,30.5604714 9.88980773,31.1732479 10.3218937,31.61319 L14.3127972,36.4525532 L14.3127972,37.0888981 L3,37.0888981 L3,36.4604093 L6.99090345,31.61319 C7.41513335,31.1732479 7.61153608,30.5526153 7.50155055,29.9476949 L7.50155055,13.1513335 Z" id="路径" fill="#000000"></path>
        </g>
    </g>
</svg>