<?xml version="1.0" encoding="UTF-8"?>
<svg width="44px" height="44px" viewBox="0 0 44 44" version="1.1" xmlns="http://www.w3.org/2000/svg" xmlns:xlink="http://www.w3.org/1999/xlink">
    <title>telegram</title>
    <g id="telegram" stroke="none" stroke-width="1" fill="none" fill-rule="evenodd">
        <g id="reddit" fill-rule="nonzero">
            <rect id="Rectangle-Copy-48" fill="#FCA1A1" opacity="0" x="0" y="0" width="44" height="44"></rect>
            <path d="M23.2863037,31.2765516 C22.5362757,32.0265831 21.7784414,32.7687911 21.0127828,33.5031976 C20.2471242,34.2376034 19.4892959,34.9798113 18.7392618,35.729843 C18.4580014,35.9798537 18.1689285,36.1751711 17.8720434,36.3158027 C17.5751524,36.4564335 17.2392058,36.5267477 16.8641918,36.5267477 C16.6141804,36.4954962 16.4110489,36.4251819 16.254797,36.3158027 C16.0985392,36.2064228 15.9735366,36.0267305 15.879783,35.7767197 C15.317256,33.9953942 14.7469287,32.2062827 14.1687771,30.4093331 C13.5906315,28.61238 13.0046736,26.8232692 12.4108974,25.0419406 C12.3483991,24.8544336 12.2780824,24.7138064 12.1999535,24.6200528 C12.1218246,24.5262993 11.9890097,24.4481704 11.8015027,24.3856721 C10.4264433,23.9794029 9.06703247,23.5653274 7.72322527,23.1434337 C6.37941806,22.7215399 5.02000606,22.2918459 3.64494789,21.8543215 C3.45743969,21.7918232 3.27774738,21.7293189 3.10586496,21.6668145 C2.93398295,21.6043162 2.769916,21.5261872 2.61365936,21.4324338 C2.23864349,21.2136715 2.03551292,20.9402294 2.00426159,20.6120891 C1.97301027,20.2839488 2.11363914,19.9948821 2.42615236,19.7448707 C2.67616298,19.5261085 2.94179524,19.3386075 3.22305713,19.1823497 C3.50431884,19.0260918 3.78557695,18.9010891 4.06683865,18.8073357 C5.78566168,18.119806 7.50445829,17.4479129 9.22327831,16.7916323 C10.9421025,16.1353579 12.6609027,15.4790893 14.379727,14.8228148 C16.4423101,14.0102764 18.5126814,13.2055684 20.590895,12.4086606 C22.6691087,11.6117528 24.7472863,10.814851 26.8254999,10.0179433 C28.9037137,9.22103551 30.9818973,8.41632745 33.0601109,7.60378909 C35.1383245,6.79125673 37.2086899,5.99436095 39.2712789,5.21307776 C40.0838113,4.90056209 40.7557045,4.93181726 41.2869763,5.30683126 C41.8182541,5.68184528 42.0526349,6.30686463 41.9901306,7.18190132 C41.9276262,7.74442234 41.8338727,8.29912507 41.70887,8.8460275 C41.5838674,9.39292393 41.4588587,9.94762666 41.333856,10.5101537 C40.8963376,12.6664902 40.4432007,14.8306151 39.9744272,17.0025823 C39.5056598,19.1745494 39.0447105,21.3464806 38.5915675,23.5184477 C38.1384247,25.6904148 37.6774694,27.862352 37.2087019,30.0343191 C36.7399344,32.2062845 36.2711669,34.3704063 35.8023994,36.5267477 C35.8023994,36.5579993 35.8023994,36.5814373 35.8023994,36.5970631 C35.8023994,36.6126883 35.8023994,36.6205012 35.8023994,36.6205012 C35.5836372,37.6205436 35.1461308,38.237748 34.4898503,38.4721329 C33.8335698,38.7065175 33.0991783,38.5268254 32.28664,37.9330503 C30.8490823,36.8705054 29.4193548,35.815789 27.9974217,34.7688692 C26.5754827,33.7219501 25.1457612,32.6672337 23.7081975,31.6046858 C23.6456931,31.5421875 23.5831948,31.4874954 23.5206905,31.4406217 C23.4581861,31.393742 23.3800633,31.3390559 23.2863037,31.2765516 Z M16.9110656,33.9485264 C16.9423207,33.9485264 16.9657576,33.9407135 16.9813822,33.9250877 C16.9970067,33.9094625 17.0048251,33.9016496 17.0048251,33.9016496 C17.0048251,33.8703981 17.0126374,33.8313348 17.028262,33.784458 C17.0438865,33.7375807 17.0516988,33.6985174 17.0516988,33.6672659 C17.1454523,32.6984751 17.2392058,31.7218882 17.3329593,30.7374674 C17.4267128,29.7530526 17.5048417,28.7764622 17.5673461,27.8076719 C17.5985952,27.5889098 17.6610936,27.3857842 17.7548531,27.1982772 C17.8486065,27.0107642 17.9736092,26.8388878 18.1298671,26.6826299 C19.4111669,25.5263327 20.6846425,24.3778598 21.9503179,23.2371872 C23.2159991,22.0965145 24.4816564,20.9558599 25.7473377,19.8151874 C27.013013,18.6745147 28.2786762,17.5338541 29.5443516,16.3931815 C30.8100328,15.2525088 32.0835024,14.1196665 33.3648083,12.9946185 C33.5835705,12.7758563 33.8179512,12.5571061 34.0679626,12.338344 C34.3179679,12.1195818 34.5523486,11.9008317 34.7711109,11.6820694 C34.8336152,11.6195651 34.8726766,11.5414422 34.8883012,11.4476887 C34.9039258,11.3539292 34.9273687,11.2601817 34.9586179,11.1664222 C34.8648643,11.1664222 34.7789232,11.1429853 34.7007942,11.0961116 C34.6226653,11.0492319 34.53673,11.025795 34.4429766,11.025795 C34.2867187,11.0570441 34.1304609,11.1039239 33.9742031,11.1664222 C33.8179512,11.2289266 33.6616934,11.3070554 33.5054416,11.400809 C33.1616767,11.588316 32.8257302,11.7914476 32.4975899,12.0102097 C32.1694497,12.2289659 31.8491277,12.4320975 31.536612,12.6196045 C30.0678051,13.5571455 28.6068226,14.479044 27.1536402,15.3853359 C25.700452,16.2916217 24.2472876,17.2057079 22.7940993,18.1276243 C21.3409171,19.0495347 19.8877468,19.9636268 18.4345645,20.8699128 C16.9813762,21.7761986 15.5360241,22.698103 14.0984605,23.6356441 C13.9109535,23.7293976 13.7937631,23.8387757 13.7468893,23.9637783 C13.7000095,24.088781 13.7234492,24.2450389 13.8172059,24.4325458 C14.0047129,24.9950668 14.1922139,25.5732124 14.379727,26.1669827 C14.567234,26.7607588 14.7547349,27.3389045 14.942248,27.9014255 C15.2860069,28.93272 15.6219533,29.9483719 15.9500936,30.9484173 C16.2782339,31.9484567 16.5985559,32.948484 16.9110656,33.9485264 Z" id="Fill-1" fill="#1388CB"></path>
        </g>
    </g>
</svg>