<?xml version="1.0" encoding="UTF-8"?>
<svg width="32px" height="32px" viewBox="0 0 32 32" version="1.1" xmlns="http://www.w3.org/2000/svg" xmlns:xlink="http://www.w3.org/1999/xlink">
    <!-- Generator: Sketch 64 (93537) - https://sketch.com -->
    <title>twitter</title>
    <desc>Created with Sketch.</desc>
    <g id="twitter" stroke="none" stroke-width="1" fill="none" fill-rule="evenodd">
        <g>
            <rect id="Rectangle-Copy-44" fill="#FCA1A1" opacity="0" x="0" y="0" width="32" height="32"></rect>
            <path d="M28.403698,10.316642 C28.403698,10.4419683 28.403698,10.5777299 28.403698,10.7239506 C28.403698,10.8701634 28.403698,11.0059329 28.403698,11.1312593 C28.403698,13.1364889 28.0223421,15.1625808 27.2596302,17.2095832 C26.4969183,19.2565936 25.3740438,21.1051432 23.8909821,22.7552802 C22.4079285,24.4054172 20.5859136,25.7526614 18.4248885,26.797053 C16.2638553,27.8414446 13.7638851,28.3636364 10.9248804,28.3636364 C9.18758952,28.3636364 7.52447088,28.1234269 5.93547562,27.6430078 C4.34648851,27.1625888 2.85285867,26.5046275 1.45454545,25.6691158 C1.70878274,25.6691158 1.96302003,25.679559 2.21725732,25.7004454 C2.47149461,25.7213318 2.7257319,25.731775 2.97996918,25.731775 C4.42065257,25.731775 5.78716376,25.5020167 7.07954342,25.0424841 C8.37192308,24.5829515 9.54776037,23.9563277 10.6070878,23.1625888 C9.25115291,23.1208161 8.05413054,22.7030642 7.01598817,21.9093253 C5.97784579,21.1155864 5.24691969,20.1129837 4.82318545,18.9014929 C5.03505257,18.9432657 5.23632715,18.9746033 5.42700105,18.9954897 C5.61768308,19.0163761 5.79776444,19.0268193 5.96726139,19.0268193 C6.26386884,19.0268193 6.54988376,19.0059329 6.82530613,18.9641521 C7.10073664,18.9223793 7.36555834,18.8806066 7.61979562,18.8388338 C6.22149054,18.5464003 5.04565325,17.8466662 4.09225935,16.7396154 C3.13886545,15.6325566 2.66217664,14.3479796 2.66217664,12.8858282 L2.66217664,12.823169 C3.08590274,13.0320409 3.53081393,13.19914 3.99691834,13.3244744 C4.46302274,13.4498007 4.9503041,13.5333463 5.45878681,13.5751271 C4.65369664,13.0320409 3.99691834,12.3114204 3.48844376,11.4132415 C2.97996918,10.5150707 2.7257319,9.5437975 2.7257319,8.49940591 C2.7257319,7.95631971 2.79987969,7.42369275 2.94819156,6.90149294 C3.09649529,6.37930115 3.29776173,5.88843895 3.55199901,5.42890633 C5.07743088,7.26703682 6.93123156,8.76049378 9.11344173,9.90932534 C11.29566,11.0581569 13.6791122,11.6952238 16.2638634,11.8205582 C16.1791231,11.5698975 16.1261522,11.329696 16.1049671,11.0999297 C16.0837821,10.8701634 16.0731895,10.6508402 16.0731895,10.4419603 C16.0731895,8.77093697 16.676997,7.34013918 17.8846282,6.14953484 C19.0922594,4.95893051 20.543519,4.36363636 22.2384478,4.36363636 C23.1282783,4.36363636 23.9545455,4.53073549 24.7172573,4.86494176 C25.4799692,5.19914804 26.1579326,5.65867264 26.7511556,6.24353161 C27.4291271,6.11820526 28.0964899,5.93021975 28.7532763,5.67955903 C29.4100546,5.42890633 30.0350471,5.13648085 30.6282783,4.8022826 C30.4164112,5.51246792 30.0774255,6.14953484 29.6113292,6.71350743 C29.1452248,7.27748001 28.59438,7.7683342 27.9587787,8.18608602 C28.5520099,8.10254047 29.1452166,7.97721412 29.7384397,7.81011499 C30.3316709,7.64300785 30.9036926,7.43413594 31.4545455,7.18347522 C31.0731895,7.81011499 30.6176858,8.38452275 30.088018,8.90671454 C29.5583583,9.42891435 28.996921,9.89888214 28.403698,10.316642 Z" id="Path-Copy-2" fill="#1DA1F2"></path>
        </g>
    </g>
</svg>