<?xml version="1.0" encoding="utf-8"?>
<!-- Generator: Adobe Illustrator 24.0.0, SVG Export Plug-In . SVG Version: 6.00 Build 0)  -->
<svg version="1.1" id="图层_1" xmlns="http://www.w3.org/2000/svg" xmlns:xlink="http://www.w3.org/1999/xlink" x="0px" y="0px"
	 viewBox="0 0 420 420" style="enable-background:new 0 0 420 420;" xml:space="preserve">
<style type="text/css">
	.st0{fill:#FFFFFF;}
</style>
<desc></desc>
<rect class="st0" width="420" height="420"/>
<g>
	<path d="M396,12h-12h-12h-12h-12h-12h-12v12v12v12v12v12v12v12h12h12h12h12h12h12h12V84V72V60V48V36V24V12H396z M396,36v12v12v12
		v12h-12h-12h-12h-12h-12V72V60V48V36V24h12h12h12h12h12V36z"/>
	<polygon points="204,48 216,48 216,60 204,60 204,72 192,72 192,84 204,84 204,96 216,96 216,84 228,84 228,96 216,96 216,108 
		228,108 240,108 252,108 252,96 240,96 240,84 252,84 252,96 264,96 264,84 276,84 276,72 276,60 288,60 288,72 288,84 300,84 
		300,72 300,60 300,48 312,48 312,36 312,24 300,24 300,12 288,12 276,12 264,12 264,24 276,24 276,36 288,36 288,48 276,48 264,48 
		264,60 252,60 252,72 240,72 240,60 240,48 252,48 252,36 264,36 264,24 252,24 240,24 240,12 228,12 216,12 216,24 228,24 228,36 
		216,36 216,24 204,24 192,24 192,36 180,36 180,48 192,48 	"/>
	<polygon points="360,36 348,36 348,48 348,60 348,72 360,72 372,72 384,72 384,60 384,48 384,36 372,36 	"/>
	<polygon points="60,72 72,72 72,60 72,48 72,36 60,36 48,36 36,36 36,48 36,60 36,72 48,72 	"/>
	<rect x="144" y="72" width="12" height="12"/>
	<polygon points="180,72 192,72 192,60 180,60 180,48 168,48 168,36 168,24 180,24 180,12 168,12 156,12 156,24 144,24 144,36 
		156,36 156,48 144,48 132,48 120,48 120,36 120,24 132,24 144,24 144,12 132,12 120,12 108,12 108,24 108,36 108,48 108,60 108,72 
		120,72 132,72 132,60 144,60 156,60 168,60 168,72 168,84 180,84 	"/>
	<path d="M36,96h12h12h12h12h12V84V72V60V48V36V24V12H84H72H60H48H36H24H12v12v12v12v12v12v12v12h12H36z M24,72V60V48V36V24h12h12
		h12h12h12v12v12v12v12v12H72H60H48H36H24V72z"/>
	<rect x="132" y="84" width="12" height="12"/>
	<rect x="156" y="84" width="12" height="12"/>
	<rect x="276" y="84" width="12" height="12"/>
	<rect x="300" y="84" width="12" height="12"/>
	<polygon points="132,108 132,96 120,96 120,84 108,84 108,96 108,108 120,108 	"/>
	<rect x="288" y="96" width="12" height="12"/>
	<polygon points="48,120 48,108 36,108 24,108 24,120 12,120 12,132 24,132 36,132 36,120 	"/>
	<polygon points="108,120 108,108 96,108 84,108 84,120 96,120 	"/>
	<rect x="144" y="108" width="12" height="12"/>
	<polygon points="264,120 276,120 276,108 276,96 264,96 264,108 252,108 252,120 	"/>
	<polygon points="336,108 324,108 324,120 312,120 312,108 300,108 300,120 300,132 312,132 312,144 324,144 336,144 348,144 
		348,132 348,120 336,120 	"/>
	<polygon points="384,108 372,108 360,108 348,108 348,120 360,120 372,120 384,120 396,120 396,132 384,132 372,132 372,144 
		384,144 396,144 408,144 408,132 408,120 408,108 396,108 	"/>
	<polygon points="60,132 72,132 72,144 84,144 96,144 96,132 84,132 84,120 72,120 72,108 60,108 60,120 48,120 48,132 	"/>
	<rect x="216" y="120" width="12" height="12"/>
	<rect x="36" y="132" width="12" height="12"/>
	<polygon points="132,132 132,120 120,120 120,132 120,144 132,144 	"/>
	<polygon points="36,144 24,144 24,156 12,156 12,168 24,168 36,168 48,168 48,156 36,156 	"/>
	<rect x="108" y="144" width="12" height="12"/>
	<rect x="144" y="144" width="12" height="12"/>
	<rect x="348" y="144" width="12" height="12"/>
	<polygon points="324,156 312,156 312,168 300,168 300,180 312,180 312,192 324,192 324,180 336,180 336,168 348,168 348,156 
		336,156 	"/>
	<polygon points="360,180 360,192 348,192 348,204 360,204 360,216 372,216 372,204 372,192 384,192 384,204 396,204 396,192 
		408,192 408,180 408,168 396,168 396,180 384,180 372,180 372,168 372,156 360,156 360,168 	"/>
	<polygon points="84,192 96,192 96,180 84,180 72,180 72,192 72,204 84,204 	"/>
	<polygon points="216,204 204,204 204,216 204,228 204,240 216,240 216,252 228,252 240,252 240,240 228,240 228,228 216,228 
		216,216 228,216 228,204 228,192 216,192 	"/>
	<rect x="240" y="192" width="12" height="12"/>
	<rect x="12" y="204" width="12" height="12"/>
	<rect x="84" y="204" width="12" height="12"/>
	<polygon points="312,204 300,204 300,216 300,228 312,228 312,216 324,216 324,228 336,228 348,228 348,216 336,216 336,204 
		336,192 324,192 324,204 	"/>
	<polygon points="60,228 60,240 72,240 72,228 84,228 84,216 72,216 72,204 60,204 60,216 48,216 48,204 60,204 60,192 48,192 
		48,180 36,180 24,180 24,192 24,204 36,204 36,216 36,228 48,228 	"/>
	<rect x="228" y="216" width="12" height="12"/>
	<polygon points="384,216 384,228 372,228 372,240 384,240 396,240 408,240 408,228 408,216 396,216 	"/>
	<rect x="312" y="228" width="12" height="12"/>
	<polygon points="156,240 156,228 144,228 144,240 144,252 156,252 	"/>
	<polygon points="300,252 300,264 300,276 312,276 312,264 312,252 312,240 300,240 	"/>
	<polygon points="132,264 132,252 132,240 120,240 120,252 108,252 108,240 120,240 120,228 108,228 108,216 96,216 96,228 84,228 
		84,240 96,240 96,252 84,252 84,264 96,264 96,276 108,276 120,276 120,264 	"/>
	<polygon points="36,264 36,252 48,252 48,240 36,240 36,228 24,228 12,228 12,240 24,240 24,252 12,252 12,264 24,264 24,276 
		36,276 	"/>
	<rect x="72" y="264" width="12" height="12"/>
	<rect x="12" y="276" width="12" height="12"/>
	<polygon points="60,276 48,276 36,276 36,288 48,288 60,288 72,288 72,276 	"/>
	<rect x="84" y="276" width="12" height="12"/>
	<path d="M324,288h12v12h-12h-12h-12h-12h-12v-12h-12v-12h12h12v-12v-12v-12h-12v-12h12v-12h-12v-12h12h12v-12h-12v-12v-12v-12h12
		h12v-12h-12h-12h-12v-12h-12v12h-12h-12v-12h-12v12h-12h-12h-12v-12h12v-12v-12V96h-12V84h-12v12h-12v12h12h12v12h-12h-12v12h12v12
		h-12v12h12h12v12h-12v12v12h-12v-12h-12v-12h-12h-12h-12h-12v-12H96H84H72v-12H60H48v12h12v12h12h12h12v12h12v12H96v12h12h12v-12
		v-12h12v12h12v12h-12v12h12h12v-12h12v12h12v-12h12v-12h12v-12h12h12v12h12v-12h12h12h12v12h-12v12h-12v12v12h12v12h-12v12h12v12
		h-12v-12h-12v12h-12h-12v-12h-12v-12h-12v-12h-12v12h-12v12v12v12h12v-12h12v12h12h12v12v12v12h12v12h12v-12v-12v-12v-12h12v12v12
		v12v12h12h12v-12h12h12v12h-12h-12v12h12h12v12v12h-12h-12v12h12v12v12v12h12h12h12h12v-12v-12h-12h-12h-12v-12h12h12v-12h12h12v12
		v12v12v12h12v-12v-12h12v-12h-12v-12h12v-12h-12v-12v-12h12v-12v-12h-12h-12v-12h12h12v-12v-12v-12h-12v-12h-12h-12v12h12v12h12v12
		h-12h-12v-12v-12h-12v12v12h-12v12H324z M216,168h-12v-12h12h12v12H216z M348,324v12v12h-12h-12h-12v-12v-12v-12h12h12h12V324z"/>
	<rect x="24" y="288" width="12" height="12"/>
	<rect x="72" y="288" width="12" height="12"/>
	<polygon points="396,288 408,288 408,276 408,264 408,252 396,252 384,252 384,264 384,276 384,288 384,300 384,312 396,312 
		396,300 	"/>
	<rect x="12" y="300" width="12" height="12"/>
	<polygon points="48,300 48,312 60,312 72,312 72,300 60,300 	"/>
	<rect x="84" y="300" width="12" height="12"/>
	<path d="M72,324H60H48H36H24H12v12v12v12v12v12v12v12h12h12h12h12h12h12h12v-12v-12v-12v-12v-12v-12v-12H84H72z M84,348v12v12v12
		v12H72H60H48H36H24v-12v-12v-12v-12v-12h12h12h12h12h12V348z"/>
	<polygon points="144,324 144,336 156,336 156,348 168,348 168,336 168,324 156,324 	"/>
	<polygon points="216,336 228,336 228,324 216,324 204,324 204,312 204,300 204,288 192,288 180,288 168,288 168,276 156,276 
		156,264 144,264 144,276 144,288 132,288 132,276 120,276 120,288 108,288 96,288 96,300 108,300 120,300 120,312 108,312 108,324 
		108,336 120,336 120,324 132,324 132,312 132,300 144,300 156,300 168,300 168,312 168,324 180,324 180,336 192,336 192,348 
		204,348 204,336 	"/>
	<rect x="324" y="324" width="12" height="12"/>
	<polygon points="384,336 384,348 396,348 396,336 408,336 408,324 408,312 396,312 396,324 384,324 372,324 372,336 	"/>
	<polygon points="132,348 132,360 132,372 144,372 156,372 156,360 144,360 144,348 144,336 132,336 	"/>
	<rect x="228" y="336" width="12" height="12"/>
	<polygon points="264,348 264,360 276,360 276,348 276,336 264,336 	"/>
	<polygon points="48,348 36,348 36,360 36,372 36,384 48,384 60,384 72,384 72,372 72,360 72,348 60,348 	"/>
	<rect x="108" y="348" width="12" height="12"/>
	<path d="M252,360h-12h-12h-12v-12h-12v12h-12v12v12v12h-12v12h12h12h12h12v-12h12v-12v-12h12h12v-12H252z M204,396v-12h12v12H204z"
		/>
	<polygon points="384,360 384,372 396,372 396,384 408,384 408,372 408,360 396,360 	"/>
	<polygon points="108,372 108,384 108,396 120,396 120,384 132,384 132,372 120,372 	"/>
	<polygon points="264,384 264,396 252,396 252,408 264,408 276,408 276,396 276,384 276,372 264,372 	"/>
	<polygon points="144,396 156,396 156,384 144,384 132,384 132,396 	"/>
	<polygon points="384,396 372,396 372,408 384,408 396,408 408,408 408,396 396,396 396,384 384,384 	"/>
	<rect x="156" y="396" width="12" height="12"/>
</g>
</svg>
