<?xml version="1.0" encoding="utf-8"?>
<!-- Generator: Adobe Illustrator 24.0.0, SVG Export Plug-In . SVG Version: 6.00 Build 0)  -->
<svg version="1.1" id="图层_1" xmlns="http://www.w3.org/2000/svg" xmlns:xlink="http://www.w3.org/1999/xlink" x="0px" y="0px"
	 viewBox="0 0 150 150" style="enable-background:new 0 0 150 150;" xml:space="preserve">
<style type="text/css">
	.st0{fill:#FFFFFF;}
	.st1{fill:#2471FE;}
	.st2{fill:#00DF9B;}
</style>
<desc></desc>
<g>
	<rect class="st0" width="150" height="150"/>
	<g>
		<polygon points="80.8,7.7 84.6,7.7 84.6,11.5 88.5,11.5 88.5,7.7 88.5,3.8 84.6,3.8 80.8,3.8 76.9,3.8 73.1,3.8 73.1,7.7 
			76.9,7.7 		"/>
		<path d="M142.3,3.8h-3.8h-3.8h-3.8h-3.8h-3.8h-3.8v3.8v3.8v3.8v3.8v3.8v3.8v3.8h3.8h3.8h3.8h3.8h3.8h3.8h3.8v-3.8v-3.8v-3.8v-3.8
			v-3.8V7.7V3.8H142.3z M142.3,11.5v3.8v3.8v3.8v3.8h-3.8h-3.8h-3.8h-3.8h-3.8v-3.8v-3.8v-3.8v-3.8V7.7h3.8h3.8h3.8h3.8h3.8V11.5z"
			/>
		<polygon points="73.1,11.5 73.1,7.7 69.2,7.7 69.2,3.8 65.4,3.8 65.4,7.7 65.4,11.5 65.4,15.4 69.2,15.4 73.1,15.4 76.9,15.4 
			76.9,11.5 		"/>
		<rect x="80.8" y="11.5" width="3.8" height="3.8"/>
		<polygon points="130.8,11.5 126.9,11.5 126.9,15.4 126.9,19.2 126.9,23.1 130.8,23.1 134.6,23.1 138.5,23.1 138.5,19.2 
			138.5,15.4 138.5,11.5 134.6,11.5 		"/>
		<rect x="34.6" y="15.4" width="3.8" height="3.8"/>
		<rect x="84.6" y="15.4" width="3.8" height="3.8"/>
		<polygon points="19.2,23.1 23.1,23.1 23.1,19.2 23.1,15.4 23.1,11.5 19.2,11.5 15.4,11.5 11.5,11.5 11.5,15.4 11.5,19.2 
			11.5,23.1 15.4,23.1 		"/>
		<polygon points="42.3,19.2 38.5,19.2 38.5,23.1 38.5,26.9 42.3,26.9 42.3,23.1 		"/>
		<rect x="69.2" y="19.2" width="3.8" height="3.8"/>
		<polygon points="92.3,23.1 92.3,26.9 96.2,26.9 96.2,23.1 100,23.1 100,19.2 96.2,19.2 92.3,19.2 88.5,19.2 88.5,23.1 		"/>
		<polygon points="50,23.1 50,19.2 50,15.4 53.8,15.4 53.8,19.2 57.7,19.2 57.7,15.4 61.5,15.4 61.5,11.5 57.7,11.5 57.7,7.7 
			57.7,3.8 53.8,3.8 53.8,7.7 50,7.7 46.2,7.7 42.3,7.7 42.3,3.8 38.5,3.8 34.6,3.8 34.6,7.7 38.5,7.7 38.5,11.5 42.3,11.5 
			46.2,11.5 46.2,15.4 46.2,19.2 46.2,23.1 46.2,26.9 50,26.9 		"/>
		<rect x="84.6" y="23.1" width="3.8" height="3.8"/>
		<rect x="100" y="23.1" width="3.8" height="3.8"/>
		<path d="M11.5,30.8h3.8h3.8h3.8h3.8h3.8v-3.8v-3.8v-3.8v-3.8v-3.8V7.7V3.8h-3.8h-3.8h-3.8h-3.8h-3.8H7.7H3.8v3.8v3.8v3.8v3.8v3.8
			v3.8v3.8h3.8H11.5z M7.7,23.1v-3.8v-3.8v-3.8V7.7h3.8h3.8h3.8h3.8h3.8v3.8v3.8v3.8v3.8v3.8h-3.8h-3.8h-3.8h-3.8H7.7V23.1z"/>
		<rect x="34.6" y="26.9" width="3.8" height="3.8"/>
		<rect x="42.3" y="26.9" width="3.8" height="3.8"/>
		<rect x="50" y="26.9" width="3.8" height="3.8"/>
		<polygon points="61.5,26.9 65.4,26.9 65.4,23.1 61.5,23.1 61.5,19.2 57.7,19.2 57.7,23.1 57.7,26.9 57.7,30.8 53.8,30.8 
			53.8,34.6 57.7,34.6 61.5,34.6 65.4,34.6 65.4,30.8 61.5,30.8 		"/>
		<rect x="65.4" y="26.9" width="3.8" height="3.8"/>
		<rect x="80.8" y="26.9" width="3.8" height="3.8"/>
		<rect x="88.5" y="26.9" width="3.8" height="3.8"/>
		<rect x="103.8" y="26.9" width="3.8" height="3.8"/>
		<polygon points="111.5,30.8 111.5,34.6 115.4,34.6 115.4,30.8 115.4,26.9 115.4,23.1 111.5,23.1 111.5,19.2 115.4,19.2 
			115.4,15.4 115.4,11.5 115.4,7.7 111.5,7.7 111.5,3.8 107.7,3.8 103.8,3.8 100,3.8 100,7.7 96.2,7.7 92.3,7.7 92.3,11.5 
			92.3,15.4 96.2,15.4 96.2,11.5 100,11.5 103.8,11.5 103.8,15.4 103.8,19.2 107.7,19.2 107.7,23.1 107.7,26.9 111.5,26.9 		"/>
		<rect x="46.2" y="30.8" width="3.8" height="3.8"/>
		<polygon points="80.8,34.6 80.8,30.8 76.9,30.8 76.9,26.9 80.8,26.9 80.8,23.1 84.6,23.1 84.6,19.2 80.8,19.2 80.8,15.4 
			76.9,15.4 76.9,19.2 76.9,23.1 73.1,23.1 73.1,26.9 73.1,30.8 69.2,30.8 69.2,34.6 73.1,34.6 73.1,38.5 76.9,38.5 76.9,34.6 		"/>
		<rect x="84.6" y="30.8" width="3.8" height="3.8"/>
		<rect x="34.6" y="34.6" width="3.8" height="3.8"/>
		<rect x="50" y="34.6" width="3.8" height="3.8"/>
		<rect x="107.7" y="34.6" width="3.8" height="3.8"/>
		<rect x="115.4" y="34.6" width="3.8" height="3.8"/>
		<polygon points="142.3,38.5 138.5,38.5 138.5,42.3 142.3,42.3 142.3,46.2 138.5,46.2 138.5,50 142.3,50 142.3,53.8 138.5,53.8 
			138.5,50 134.6,50 130.8,50 126.9,50 126.9,53.8 130.8,53.8 130.8,57.7 134.6,57.7 134.6,61.5 138.5,61.5 138.5,65.4 142.3,65.4 
			142.3,61.5 146.2,61.5 146.2,57.7 146.2,53.8 146.2,50 146.2,46.2 146.2,42.3 146.2,38.5 146.2,34.6 142.3,34.6 		"/>
		<rect x="42.3" y="38.5" width="3.8" height="3.8"/>
		<polygon points="65.4,42.3 65.4,38.5 61.5,38.5 57.7,38.5 57.7,42.3 61.5,42.3 		"/>
		<rect x="69.2" y="38.5" width="3.8" height="3.8"/>
		<polygon points="57.7,46.2 57.7,42.3 53.8,42.3 50,42.3 50,46.2 53.8,46.2 		"/>
		<polygon points="119.2,46.2 123.1,46.2 123.1,42.3 126.9,42.3 126.9,38.5 123.1,38.5 119.2,38.5 119.2,42.3 		"/>
		<polygon points="134.6,42.3 134.6,38.5 134.6,34.6 130.8,34.6 130.8,38.5 130.8,42.3 130.8,46.2 134.6,46.2 		"/>
		<rect x="46.2" y="46.2" width="3.8" height="3.8"/>
		<rect x="115.4" y="46.2" width="3.8" height="3.8"/>
		<polygon points="53.8,53.8 57.7,53.8 57.7,50 53.8,50 50,50 50,53.8 		"/>
		<polygon points="119.2,57.7 119.2,61.5 123.1,61.5 123.1,57.7 123.1,53.8 123.1,50 119.2,50 119.2,53.8 		"/>
		<polygon points="126.9,61.5 123.1,61.5 123.1,65.4 119.2,65.4 115.4,65.4 111.5,65.4 107.7,65.4 107.7,69.2 111.5,69.2 
			111.5,73.1 111.5,76.9 111.5,80.8 107.7,80.8 107.7,84.6 111.5,84.6 115.4,84.6 119.2,84.6 123.1,84.6 126.9,84.6 126.9,80.8 
			123.1,80.8 123.1,76.9 119.2,76.9 119.2,80.8 115.4,80.8 115.4,76.9 119.2,76.9 119.2,73.1 115.4,73.1 115.4,69.2 119.2,69.2 
			119.2,73.1 123.1,73.1 123.1,69.2 126.9,69.2 126.9,65.4 130.8,65.4 130.8,61.5 130.8,57.7 126.9,57.7 		"/>
		<path d="M103.8,61.5v-3.8H100v-3.8h3.8V50h3.8v3.8v3.8h3.8v3.8h3.8v-3.8v-3.8V50h-3.8v-3.8h-3.8h-3.8v-3.8v-3.8v-3.8v-3.8H100
			v-3.8h-3.8v3.8h-3.8v3.8v3.8h3.8v3.8h3.8v3.8h-3.8V50v3.8v3.8h-3.8v-3.8V50v-3.8v-3.8v-3.8h-3.8h-3.8v-3.8h-3.8v3.8h-3.8v3.8v3.8
			h3.8V50v3.8h3.8V50v-3.8v-3.8h3.8v3.8V50v3.8v3.8h-3.8v3.8h-3.8v-3.8h-3.8h-3.8h-3.8v3.8h-3.8v3.8h3.8h3.8h3.8v3.8h3.8v3.8h-3.8
			v3.8v3.8h3.8v-3.8h3.8v-3.8v-3.8h3.8h3.8v3.8h3.8h3.8v3.8h-3.8h-3.8v-3.8h-3.8v3.8v3.8h3.8v3.8h3.8v-3.8h3.8h3.8v-3.8h3.8v-3.8
			h-3.8v-3.8v-3.8h3.8v-3.8H103.8z M92.3,61.5h3.8v3.8h-3.8V61.5z"/>
		<path d="M19.2,65.4h3.8v3.8h3.8h3.8h3.8h3.8h3.8v-3.8v-3.8h-3.8v3.8h-3.8h-3.8h-3.8v-3.8h3.8h3.8v-3.8v-3.8h3.8h3.8v3.8v3.8h3.8
			H50v3.8h3.8v-3.8v-3.8H50v-3.8h-3.8V50h-3.8h-3.8h-3.8v-3.8h3.8h3.8v-3.8h-3.8h-3.8h-3.8h-3.8h-3.8v-3.8h3.8h3.8v-3.8h-3.8h-3.8
			h-3.8v3.8h-3.8v-3.8h-3.8v3.8v3.8v3.8h3.8v-3.8h3.8v3.8h-3.8V50h-3.8v-3.8H7.7v-3.8H3.8v3.8V50v3.8v3.8v3.8v3.8h3.8v-3.8v-3.8h3.8
			h3.8v-3.8h3.8v3.8h3.8v3.8h-3.8h-3.8h-3.8v3.8h3.8v3.8h3.8V65.4z M26.9,46.2h3.8V50h-3.8h-3.8v-3.8H26.9z M26.9,53.8h3.8v3.8h-3.8
			V53.8z"/>
		<polygon points="130.8,73.1 130.8,76.9 134.6,76.9 138.5,76.9 142.3,76.9 142.3,80.8 146.2,80.8 146.2,76.9 146.2,73.1 
			146.2,69.2 142.3,69.2 138.5,69.2 134.6,69.2 134.6,65.4 130.8,65.4 130.8,69.2 		"/>
		<rect x="3.8" y="73.1" width="3.8" height="3.8"/>
		<polygon points="26.9,73.1 26.9,76.9 30.8,76.9 34.6,76.9 34.6,73.1 30.8,73.1 		"/>
		<polygon points="50,73.1 50,69.2 46.2,69.2 46.2,73.1 42.3,73.1 38.5,73.1 38.5,76.9 38.5,80.8 42.3,80.8 46.2,80.8 50,80.8 
			50,76.9 		"/>
		<rect x="126.9" y="76.9" width="3.8" height="3.8"/>
		<rect x="50" y="80.8" width="3.8" height="3.8"/>
		<rect x="3.8" y="84.6" width="3.8" height="3.8"/>
		<polygon points="38.5,84.6 34.6,84.6 34.6,88.5 30.8,88.5 26.9,88.5 26.9,84.6 30.8,84.6 30.8,80.8 26.9,80.8 23.1,80.8 
			23.1,76.9 23.1,73.1 23.1,69.2 19.2,69.2 19.2,73.1 19.2,76.9 15.4,76.9 15.4,73.1 15.4,69.2 11.5,69.2 7.7,69.2 7.7,73.1 
			11.5,73.1 11.5,76.9 7.7,76.9 7.7,80.8 11.5,80.8 11.5,84.6 15.4,84.6 19.2,84.6 23.1,84.6 23.1,88.5 19.2,88.5 15.4,88.5 
			15.4,92.3 11.5,92.3 11.5,88.5 7.7,88.5 7.7,92.3 7.7,96.2 11.5,96.2 15.4,96.2 15.4,100 11.5,100 11.5,103.8 15.4,103.8 
			15.4,107.7 19.2,107.7 19.2,103.8 23.1,103.8 23.1,100 19.2,100 19.2,96.2 23.1,96.2 23.1,92.3 26.9,92.3 30.8,92.3 30.8,96.2 
			34.6,96.2 34.6,92.3 38.5,92.3 38.5,88.5 42.3,88.5 42.3,84.6 		"/>
		<polygon points="138.5,84.6 134.6,84.6 134.6,88.5 138.5,88.5 138.5,92.3 142.3,92.3 142.3,96.2 146.2,96.2 146.2,92.3 
			146.2,88.5 146.2,84.6 142.3,84.6 		"/>
		<polygon points="96.2,92.3 100,92.3 100,96.2 103.8,96.2 103.8,92.3 107.7,92.3 107.7,88.5 103.8,88.5 103.8,84.6 100,84.6 
			96.2,84.6 96.2,88.5 		"/>
		<polygon points="126.9,88.5 126.9,92.3 130.8,92.3 134.6,92.3 134.6,88.5 130.8,88.5 		"/>
		<polygon points="96.2,92.3 92.3,92.3 88.5,92.3 88.5,96.2 92.3,96.2 92.3,100 88.5,100 84.6,100 84.6,103.8 88.5,103.8 
			88.5,107.7 92.3,107.7 96.2,107.7 96.2,111.5 92.3,111.5 92.3,115.4 88.5,115.4 84.6,115.4 84.6,111.5 80.8,111.5 80.8,107.7 
			80.8,103.8 80.8,100 76.9,100 73.1,100 73.1,96.2 76.9,96.2 76.9,92.3 80.8,92.3 80.8,96.2 84.6,96.2 84.6,92.3 88.5,92.3 
			88.5,88.5 92.3,88.5 92.3,84.6 88.5,84.6 84.6,84.6 84.6,88.5 80.8,88.5 80.8,84.6 76.9,84.6 73.1,84.6 73.1,88.5 69.2,88.5 
			69.2,92.3 65.4,92.3 65.4,88.5 65.4,84.6 61.5,84.6 61.5,80.8 65.4,80.8 65.4,84.6 69.2,84.6 73.1,84.6 73.1,80.8 73.1,76.9 
			73.1,73.1 73.1,69.2 69.2,69.2 65.4,69.2 65.4,65.4 61.5,65.4 61.5,61.5 61.5,57.7 65.4,57.7 65.4,53.8 69.2,53.8 69.2,50 
			65.4,50 61.5,50 61.5,53.8 57.7,53.8 57.7,57.7 57.7,61.5 57.7,65.4 53.8,65.4 53.8,69.2 57.7,69.2 61.5,69.2 61.5,73.1 
			65.4,73.1 69.2,73.1 69.2,76.9 65.4,76.9 61.5,76.9 61.5,73.1 57.7,73.1 57.7,76.9 53.8,76.9 53.8,80.8 57.7,80.8 57.7,84.6 
			57.7,88.5 61.5,88.5 61.5,92.3 57.7,92.3 57.7,88.5 53.8,88.5 50,88.5 50,84.6 46.2,84.6 46.2,88.5 42.3,88.5 42.3,92.3 
			46.2,92.3 50,92.3 53.8,92.3 53.8,96.2 53.8,100 57.7,100 57.7,96.2 61.5,96.2 61.5,100 61.5,103.8 65.4,103.8 65.4,100 
			65.4,96.2 69.2,96.2 69.2,100 69.2,103.8 73.1,103.8 76.9,103.8 76.9,107.7 73.1,107.7 69.2,107.7 65.4,107.7 61.5,107.7 
			57.7,107.7 57.7,111.5 61.5,111.5 61.5,115.4 65.4,115.4 65.4,111.5 69.2,111.5 73.1,111.5 73.1,115.4 73.1,119.2 73.1,123.1 
			76.9,123.1 76.9,126.9 73.1,126.9 73.1,123.1 69.2,123.1 65.4,123.1 61.5,123.1 61.5,126.9 65.4,126.9 65.4,130.8 69.2,130.8 
			69.2,134.6 73.1,134.6 73.1,130.8 76.9,130.8 80.8,130.8 84.6,130.8 84.6,126.9 80.8,126.9 80.8,123.1 80.8,119.2 76.9,119.2 
			76.9,115.4 80.8,115.4 80.8,119.2 84.6,119.2 88.5,119.2 92.3,119.2 96.2,119.2 96.2,123.1 100,123.1 100,119.2 100,115.4 
			103.8,115.4 103.8,111.5 107.7,111.5 107.7,107.7 103.8,107.7 100,107.7 100,103.8 103.8,103.8 107.7,103.8 107.7,100 103.8,100 
			100,100 100,96.2 96.2,96.2 		"/>
		<rect x="111.5" y="92.3" width="3.8" height="3.8"/>
		<polygon points="119.2,96.2 115.4,96.2 115.4,100 119.2,100 119.2,103.8 123.1,103.8 123.1,100 123.1,96.2 123.1,92.3 123.1,88.5 
			119.2,88.5 115.4,88.5 115.4,92.3 119.2,92.3 		"/>
		<rect x="26.9" y="96.2" width="3.8" height="3.8"/>
		<rect x="34.6" y="96.2" width="3.8" height="3.8"/>
		<rect x="107.7" y="96.2" width="3.8" height="3.8"/>
		<rect x="130.8" y="96.2" width="3.8" height="3.8"/>
		<rect x="138.5" y="96.2" width="3.8" height="3.8"/>
		<rect x="3.8" y="103.8" width="3.8" height="3.8"/>
		<polygon points="26.9,107.7 30.8,107.7 30.8,103.8 26.9,103.8 23.1,103.8 23.1,107.7 		"/>
		<polygon points="138.5,103.8 134.6,103.8 134.6,107.7 138.5,107.7 142.3,107.7 142.3,111.5 146.2,111.5 146.2,107.7 146.2,103.8 
			146.2,100 142.3,100 142.3,103.8 		"/>
		<rect x="7.7" y="107.7" width="3.8" height="3.8"/>
		<rect x="3.8" y="111.5" width="3.8" height="3.8"/>
		<polygon points="26.9,111.5 23.1,111.5 23.1,115.4 26.9,115.4 30.8,115.4 34.6,115.4 34.6,111.5 38.5,111.5 38.5,107.7 
			34.6,107.7 30.8,107.7 30.8,111.5 		"/>
		<rect x="138.5" y="111.5" width="3.8" height="3.8"/>
		<rect x="34.6" y="115.4" width="3.8" height="3.8"/>
		<path d="M23.1,119.2h-3.8h-3.8h-3.8H7.7H3.8v3.8v3.8v3.8v3.8v3.8v3.8v3.8h3.8h3.8h3.8h3.8h3.8h3.8h3.8v-3.8v-3.8v-3.8v-3.8v-3.8
			v-3.8v-3.8h-3.8H23.1z M26.9,126.9v3.8v3.8v3.8v3.8h-3.8h-3.8h-3.8h-3.8H7.7v-3.8v-3.8v-3.8v-3.8v-3.8h3.8h3.8h3.8h3.8h3.8V126.9z
			"/>
		<rect x="119.2" y="119.2" width="3.8" height="3.8"/>
		<polygon points="138.5,119.2 134.6,119.2 134.6,123.1 138.5,123.1 142.3,123.1 146.2,123.1 146.2,119.2 146.2,115.4 142.3,115.4 
			142.3,119.2 		"/>
		<rect x="84.6" y="123.1" width="3.8" height="3.8"/>
		<path d="M111.5,126.9v3.8h3.8v3.8h3.8v-3.8h3.8v3.8v3.8v3.8h3.8v-3.8h3.8v-3.8v-3.8h3.8v-3.8h-3.8v-3.8v-3.8v-3.8h3.8v-3.8h-3.8
			h-3.8v-3.8h-3.8h-3.8h-3.8v-3.8h-3.8v3.8v3.8v3.8h-3.8v3.8v3.8h3.8V126.9z M115.4,119.2v-3.8h3.8h3.8h3.8v3.8v3.8v3.8h-3.8h-3.8
			h-3.8v-3.8V119.2z"/>
		<polygon points="15.4,126.9 11.5,126.9 11.5,130.8 11.5,134.6 11.5,138.5 15.4,138.5 19.2,138.5 23.1,138.5 23.1,134.6 
			23.1,130.8 23.1,126.9 19.2,126.9 		"/>
		<polygon points="38.5,126.9 38.5,123.1 34.6,123.1 34.6,126.9 34.6,130.8 38.5,130.8 		"/>
		<polygon points="61.5,130.8 61.5,126.9 57.7,126.9 57.7,123.1 57.7,119.2 61.5,119.2 61.5,115.4 57.7,115.4 57.7,111.5 
			53.8,111.5 53.8,107.7 57.7,107.7 57.7,103.8 53.8,103.8 53.8,100 50,100 50,96.2 46.2,96.2 46.2,100 42.3,100 42.3,103.8 
			46.2,103.8 46.2,107.7 50,107.7 50,111.5 46.2,111.5 46.2,115.4 42.3,115.4 42.3,119.2 46.2,119.2 50,119.2 53.8,119.2 
			53.8,123.1 50,123.1 46.2,123.1 42.3,123.1 42.3,126.9 46.2,126.9 50,126.9 53.8,126.9 53.8,130.8 57.7,130.8 		"/>
		<polygon points="96.2,126.9 96.2,130.8 100,130.8 100,134.6 103.8,134.6 103.8,130.8 107.7,130.8 107.7,126.9 107.7,123.1 
			103.8,123.1 100,123.1 100,126.9 		"/>
		<rect x="92.3" y="130.8" width="3.8" height="3.8"/>
		<polygon points="138.5,134.6 142.3,134.6 142.3,138.5 146.2,138.5 146.2,134.6 146.2,130.8 142.3,130.8 138.5,130.8 134.6,130.8 
			134.6,134.6 		"/>
		<rect x="34.6" y="134.6" width="3.8" height="3.8"/>
		<polygon points="61.5,134.6 57.7,134.6 53.8,134.6 53.8,130.8 50,130.8 46.2,130.8 42.3,130.8 42.3,134.6 46.2,134.6 50,134.6 
			50,138.5 50,142.3 46.2,142.3 46.2,138.5 42.3,138.5 38.5,138.5 38.5,142.3 38.5,146.2 42.3,146.2 46.2,146.2 50,146.2 
			53.8,146.2 57.7,146.2 57.7,142.3 61.5,142.3 61.5,138.5 		"/>
		<rect x="76.9" y="134.6" width="3.8" height="3.8"/>
		<polygon points="88.5,134.6 88.5,130.8 84.6,130.8 84.6,134.6 84.6,138.5 88.5,138.5 92.3,138.5 92.3,134.6 		"/>
		<rect x="65.4" y="138.5" width="3.8" height="3.8"/>
		<rect x="73.1" y="138.5" width="3.8" height="3.8"/>
		<polygon points="80.8,142.3 80.8,146.2 84.6,146.2 88.5,146.2 88.5,142.3 84.6,142.3 84.6,138.5 80.8,138.5 		"/>
		<polygon points="119.2,138.5 115.4,138.5 115.4,134.6 111.5,134.6 107.7,134.6 107.7,138.5 103.8,138.5 100,138.5 96.2,138.5 
			92.3,138.5 92.3,142.3 96.2,142.3 96.2,146.2 100,146.2 103.8,146.2 103.8,142.3 107.7,142.3 111.5,142.3 111.5,146.2 
			115.4,146.2 119.2,146.2 123.1,146.2 123.1,142.3 119.2,142.3 		"/>
		<rect x="130.8" y="138.5" width="3.8" height="3.8"/>
		<polygon points="138.5,142.3 138.5,146.2 142.3,146.2 146.2,146.2 146.2,142.3 142.3,142.3 142.3,138.5 138.5,138.5 		"/>
		<rect x="61.5" y="142.3" width="3.8" height="3.8"/>
		<rect x="69.2" y="142.3" width="3.8" height="3.8"/>
	</g>
	<g>
		<g>
			<path class="st0" d="M63.6,90.8c-2.4,0-4.3-1.9-4.3-4.3V63.6c0-2.4,1.9-4.3,4.3-4.3h22.9c2.4,0,4.3,1.9,4.3,4.3v22.9
				c0,2.4-1.9,4.3-4.3,4.3H63.6z"/>
			<g>
				<path d="M86.4,59.5c2.3,0,4.1,1.8,4.1,4.1v22.9c0,2.3-1.8,4.1-4.1,4.1H63.6c-2.3,0-4.1-1.8-4.1-4.1V63.6c0-2.3,1.8-4.1,4.1-4.1
					H86.4 M86.4,59H63.6C61,59,59,61,59,63.6v22.9C59,89,61,91,63.6,91h22.9C89,91,91,89,91,86.4V63.6C91,61,89,59,86.4,59L86.4,59z
					"/>
			</g>
		</g>
		<g>
			<g>
				<g>
					<path class="st1" d="M66.5,81.5L66.5,81.5c0.6-0.8,1.4-1.5,2.2-2.1l0,0c1.7,1.7,4,2.5,6.2,2.5s4.5-0.8,6.2-2.5l0,0
						c0.9,0.5,1.6,1.2,2.2,2.1h0C81.1,83.8,78.1,85,75,85S68.9,83.8,66.5,81.5z"/>
					<path class="st2" d="M81.7,66.3H75l0,0l0,0c-3.7,0-6.7,3-6.7,6.7s3,6.7,6.7,6.7c3.7,0,6.7-3,6.7-6.7c0-1.5-0.5-2.9-1.3-4
						C81.2,68.4,81.7,67.4,81.7,66.3z M75,76.6c-2,0-3.6-1.6-3.6-3.6c0-2,1.6-3.6,3.6-3.6c2,0,3.6,1.6,3.6,3.6
						C78.6,75,77,76.6,75,76.6z"/>
				</g>
			</g>
		</g>
	</g>
</g>
</svg>
