<?xml version="1.0" encoding="UTF-8"?>
<svg width="32px" height="32px" viewBox="0 0 32 32" version="1.1" xmlns="http://www.w3.org/2000/svg" xmlns:xlink="http://www.w3.org/1999/xlink">
    <!-- Generator: Sketch 64 (93537) - https://sketch.com -->
    <title>wechat</title>
    <desc>Created with Sketch.</desc>
    <defs>
        <path d="M32,21.2969636 C32,16.8578829 27.5666816,13.2430972 22.5793326,13.2430972 C17.2953369,13.2430972 13.1460107,16.8578829 13.1460107,21.2969636 C13.1460107,25.7473995 17.2953368,29.3495307 22.5792761,29.3495307 C23.6846822,29.3495307 24.8026862,29.0672333 25.9073014,28.7975903 L28.9526338,30.4688341 L28.1193564,27.6909979 C30.3412977,26.0190762 32,23.7938582 32,21.2969636 L32,21.2969636 Z M19.5193119,19.9073958 C18.967993,19.9073958 18.4153182,19.3547775 18.4153182,18.8001255 C18.4153182,18.2488065 18.967993,17.6948324 19.5193119,17.6948324 C20.3553575,17.6948324 20.9086537,18.2488065 20.9086537,18.8001255 C20.9086537,19.3547775 20.3553575,19.9073958 19.5193119,19.9073958 Z M25.6253429,19.9073958 C25.0733461,19.9073958 24.5220271,19.3547775 24.5220271,18.8001255 C24.5220271,18.2488065 25.0733461,17.6948324 25.6253429,17.6948324 C26.4599762,17.6948324 27.0133289,18.2488065 27.0133289,18.8001255 C27.0133289,19.3547775 26.4467003,19.9073958 25.6252865,19.9073958 L25.6253429,19.9073958 Z M21.6640268,12.2619766 C22.0272793,12.2619766 22.3920006,12.2873421 22.7546881,12.3246842 C21.7773525,7.75278753 16.8986403,4.36363636 11.3273191,4.36363636 C5.10536366,4.36363636 0,8.60775841 0,14.0072832 C0,17.1222154 1.69401066,19.6831736 4.52867922,21.6680686 L3.39999784,25.0826418 L7.36334777,23.087013 C8.78065384,23.3627007 9.92198967,23.6523423 11.3273191,23.6523423 C11.6780301,23.6523423 12.0306618,23.6396878 12.3820506,23.603645 C12.1560206,22.8487804 12.0306618,22.0471958 12.0306618,21.229567 C12.0299838,16.280577 16.2833143,12.2619766 21.6639703,12.2619766 L21.6640268,12.2619766 Z M15.5666958,9.1851208 C16.4193504,9.1851208 16.9833239,9.75045009 16.9833239,10.6047431 C16.9833239,11.4577367 16.4186725,12.0230095 15.5666392,12.0230095 C14.7133067,12.0230095 13.8613299,11.4577367 13.8613299,10.6047431 C13.8739845,9.74977219 14.7253398,9.18506432 15.5666392,9.18506432 L15.5666958,9.1851208 Z M7.63931795,12.0216537 C6.78598539,12.0216537 5.93400866,11.4570588 5.93400866,10.6033872 C5.93400866,9.74909425 6.78666333,9.1844429 7.63931795,9.1844429 C8.49332846,9.1844429 9.05797986,9.74977219 9.05797986,10.6033872 C9.05735844,11.4450257 8.49332846,12.0217102 7.63931795,12.0217102 L7.63931795,12.0216537 Z" id="path-1"></path>
    </defs>
    <g id="wechat" stroke="none" stroke-width="1" fill="none" fill-rule="evenodd">
        <g id="try_wechat">
            <g>
                <rect id="Rectangle-Copy-45" fill="#FCA1A1" opacity="0" x="0" y="0" width="32" height="32"></rect>
                <g id="Shape" fill-rule="nonzero">
                    <use fill="#04AE0F" xlink:href="#path-1"></use>
                    <use fill="#02DB6B" xlink:href="#path-1"></use>
                </g>
            </g>
        </g>
    </g>
</svg>