<?xml version="1.0" encoding="UTF-8"?>
<svg width="62px" height="62px" viewBox="0 0 62 62" version="1.1" xmlns="http://www.w3.org/2000/svg" xmlns:xlink="http://www.w3.org/1999/xlink">
    <!-- Generator: Sketch 64 (93537) - https://sketch.com -->
    <title>why_funny</title>
    <desc>Created with Sketch.</desc>
    <defs>
        <linearGradient x1="50%" y1="0%" x2="50%" y2="100%" id="linearGradient-1">
            <stop stop-color="#52DDDD" offset="0%"></stop>
            <stop stop-color="#29D2D3" offset="100%"></stop>
        </linearGradient>
        <linearGradient x1="50%" y1="0%" x2="50%" y2="100%" id="linearGradient-2">
            <stop stop-color="#79A2FF" offset="0%"></stop>
            <stop stop-color="#467FFF" offset="100%"></stop>
        </linearGradient>
        <linearGradient x1="0.000395797187%" y1="49.9998628%" x2="100.0004%" y2="49.9998628%" id="linearGradient-3">
            <stop stop-color="#FFD300" offset="0%"></stop>
            <stop stop-color="#FFA800" offset="100%"></stop>
        </linearGradient>
    </defs>
    <g id="why_funny" stroke="none" stroke-width="1" fill="none" fill-rule="evenodd">
        <g id="Group-42-Copy" transform="translate(0.000000, 1.000000)" fill-rule="nonzero">
            <path d="M31,40.6 L16.5938359,49.3992302 C16.1225154,49.687111 15.507061,49.5384037 15.2191802,49.0670831 C15.0814619,48.8416095 15.0385694,48.5707974 15.0998722,48.313802 L19.0166879,31.8936141 L19.0166879,31.8936141 L6.1963732,20.9116496 C5.77693621,20.5523571 5.72817942,19.9210722 6.08747186,19.5016352 C6.25935262,19.3009821 6.5036558,19.1765034 6.76701656,19.1553899 L23.5939058,17.8063859 L23.5939058,17.8063859 L30.0766796,2.21992836 C30.2887739,1.70999261 30.8740949,1.46854438 31.3840306,1.68063863 C31.6279772,1.78210173 31.8218573,1.97598183 31.9233204,2.21992836 L38.4060942,17.8063859 L38.4060942,17.8063859 L55.2329834,19.1553899 C55.7835019,19.1995247 56.1940069,19.6815864 56.1498721,20.2321049 C56.1287586,20.4954657 56.0042799,20.7397688 55.8036268,20.9116496 L42.9833121,31.8936141 L42.9833121,31.8936141 L46.9001278,48.313802 C47.0282726,48.8510145 46.6966577,49.3903933 46.1594452,49.5185382 C45.9024498,49.579841 45.6316376,49.5369485 45.4061641,49.3992302 L31,40.6 L31,40.6 Z" id="Star" fill="url(#linearGradient-1)" opacity="0.5"></path>
            <path d="M30.9995825,41.6 L16.5934184,50.3992302 C16.1220978,50.687111 15.5066435,50.5384037 15.2187627,50.0670831 C15.0810443,49.8416095 15.0381519,49.5707974 15.0994547,49.313802 L19.0162704,32.8936141 L19.0162704,32.8936141 L6.19595565,21.9116496 C5.77651867,21.5523571 5.72776187,20.9210722 6.08705431,20.5016352 C6.25893508,20.3009821 6.50323825,20.1765034 6.76659902,20.1553899 L23.5934883,18.8063859 L23.5934883,18.8063859 L38.4056766,18.8063859 L55.2325659,20.1553899 C55.7830843,20.1995247 56.1935894,20.6815864 56.1494546,21.2321049 C56.1283411,21.4954657 56.0038624,21.7397688 55.8032093,21.9116496 L42.9828946,32.8936141 L42.9828946,32.8936141 L30.9995825,41.6 Z" id="Star-Copy-2" fill="#1959EB" opacity="0.900000036"></path>
            <path d="M31,40.6 L16.5938359,49.3992302 C16.1225154,49.687111 15.507061,49.5384037 15.2191802,49.0670831 C15.0814619,48.8416095 15.0385694,48.5707974 15.0998722,48.313802 L19.0166879,31.8936141 L19.0166879,31.8936141 L6.1963732,20.9116496 C5.77693621,20.5523571 5.72817942,19.9210722 6.08747186,19.5016352 C6.25935262,19.3009821 6.5036558,19.1765034 6.76701656,19.1553899 L23.5939058,17.8063859 L23.5939058,17.8063859 L38.4060942,17.8063859 L55.2329834,19.1553899 C55.7835019,19.1995247 56.1940069,19.6815864 56.1498721,20.2321049 C56.1287586,20.4954657 56.0042799,20.7397688 55.8036268,20.9116496 L42.9833121,31.8936141 L42.9833121,31.8936141 L31,40.6 Z" id="Star-Copy" fill="url(#linearGradient-2)" opacity="0.900000036"></path>
            <path d="M31,47.9482305 C31.796666,47.9482305 33,56.8954305 33,58 C33,59.1045695 32.1045695,60 31,60 C29.8954305,60 29,59.1045695 29,58 C29,56.8954305 30.203334,47.9482305 31,47.9482305 Z M1.85027052,35.3683968 C2.90077854,35.0270661 11.7819221,33.4066679 12.0281054,34.1643422 C12.2742887,34.9220166 4.13684652,38.8312921 3.0863385,39.1726229 C2.03583048,39.5139536 0.907522225,38.9390518 0.566191479,37.8885438 C0.224860732,36.8380358 0.799762502,35.7097275 1.85027052,35.3683968 Z M49.9718946,34.1643422 C50.2180779,33.4066679 59.0992215,35.0270661 60.1497295,35.3683968 C61.2002375,35.7097275 61.7751393,36.8380358 61.4338085,37.8885438 C61.0924778,38.9390518 59.9641695,39.5139536 58.9136615,39.1726229 C57.8631535,38.8312921 49.7257113,34.9220166 49.9718946,34.1643422 Z M12.1908719,2.11145618 C13.0844874,1.46220652 14.3352268,1.66030417 14.9844764,2.55391966 C15.6337261,3.44753516 19.9192406,11.393274 19.2747243,11.8615425 C18.630208,12.329811 12.3976581,5.79867617 11.7484084,4.90506067 C11.0991588,4.01144518 11.2972564,2.76070584 12.1908719,2.11145618 Z M47.0155236,2.55391966 C47.6647732,1.66030417 48.9155126,1.46220652 49.8091281,2.11145618 C50.7027436,2.76070584 50.9008412,4.01144518 50.2515916,4.90506067 C49.6023419,5.79867617 43.369792,12.329811 42.7252757,11.8615425 C42.0807594,11.393274 46.3662739,3.44753516 47.0155236,2.55391966 Z" id="Combined-Shape" fill="url(#linearGradient-3)"></path>
        </g>
    </g>
</svg>